<?xml version="1.0" encoding="UTF-8"?>
<svg id="Layer_1" xmlns="http://www.w3.org/2000/svg" version="1.1" xmlns:xlink="http://www.w3.org/1999/xlink" viewBox="0 0 1080 1080">
  <!-- Generator: Adobe Illustrator 30.1.0, SVG Export Plug-In . SVG Version: 2.1.1 Build 136)  -->
  <defs>
    <style>
      .st0 {
        fill: url(#linear-gradient190);
      }

      .st1 {
        fill: url(#linear-gradient209);
      }

      .st2 {
        fill: url(#linear-gradient134);
      }

      .st3 {
        fill: url(#linear-gradient139);
      }

      .st4 {
        fill: url(#linear-gradient189);
      }

      .st5 {
        fill: url(#linear-gradient158);
      }

      .st6 {
        fill: url(#linear-gradient75);
      }

      .st7 {
        fill: url(#linear-gradient2);
      }

      .st8 {
        fill: url(#linear-gradient198);
      }

      .st9 {
        fill: url(#linear-gradient197);
      }

      .st10 {
        fill: url(#linear-gradient81);
      }

      .st11 {
        fill: url(#linear-gradient187);
      }

      .st12 {
        fill: url(#linear-gradient120);
      }

      .st13 {
        fill: url(#linear-gradient174);
      }

      .st14 {
        fill: url(#linear-gradient36);
      }

      .st15 {
        fill: url(#linear-gradient39);
      }

      .st16 {
        fill: url(#linear-gradient214);
      }

      .st17 {
        fill: url(#linear-gradient107);
      }

      .st18 {
        fill: url(#linear-gradient130);
      }

      .st19 {
        fill: url(#linear-gradient34);
      }

      .st20 {
        fill: url(#linear-gradient58);
      }

      .st21 {
        fill: url(#linear-gradient131);
      }

      .st22 {
        fill: url(#linear-gradient160);
      }

      .st23 {
        fill: url(#linear-gradient73);
      }

      .st24 {
        fill: url(#linear-gradient83);
      }

      .st25 {
        fill: url(#linear-gradient195);
      }

      .st26 {
        fill: url(#linear-gradient129);
      }

      .st27 {
        fill: url(#linear-gradient33);
      }

      .st28 {
        fill: url(#linear-gradient10);
      }

      .st29 {
        fill: url(#linear-gradient63);
      }

      .st30 {
        fill: url(#linear-gradient147);
      }

      .st31 {
        fill: url(#linear-gradient155);
      }

      .st32 {
        fill: url(#linear-gradient220);
      }

      .st33 {
        fill: url(#linear-gradient82);
      }

      .st34 {
        fill: url(#linear-gradient71);
      }

      .st35 {
        fill: url(#linear-gradient176);
      }

      .st36 {
        fill: url(#linear-gradient32);
      }

      .st37 {
        fill: url(#linear-gradient123);
      }

      .st38 {
        fill: url(#linear-gradient218);
      }

      .st39 {
        fill: url(#linear-gradient21);
      }

      .st40 {
        fill: url(#linear-gradient85);
      }

      .st41 {
        fill: url(#linear-gradient112);
      }

      .st42 {
        fill: url(#linear-gradient37);
      }

      .st43 {
        fill: url(#linear-gradient56);
      }

      .st44 {
        fill: url(#linear-gradient170);
      }

      .st45 {
        fill: url(#linear-gradient27);
      }

      .st46 {
        fill: url(#linear-gradient146);
      }

      .st47 {
        fill: url(#linear-gradient148);
      }

      .st48 {
        fill: url(#linear-gradient126);
      }

      .st49 {
        fill: url(#linear-gradient53);
      }

      .st50 {
        fill: url(#linear-gradient57);
      }

      .st51 {
        fill: url(#linear-gradient196);
      }

      .st52 {
        fill: url(#linear-gradient212);
      }

      .st53 {
        fill: url(#linear-gradient113);
      }

      .st54 {
        fill: url(#linear-gradient35);
      }

      .st55 {
        fill: url(#linear-gradient116);
      }

      .st56 {
        fill: url(#linear-gradient119);
      }

      .st57 {
        fill: url(#linear-gradient26);
      }

      .st58 {
        fill: url(#linear-gradient1);
      }

      .st59 {
        fill: url(#linear-gradient118);
      }

      .st60 {
        fill: url(#linear-gradient109);
      }

      .st61 {
        fill: url(#linear-gradient205);
      }

      .st62 {
        fill: url(#linear-gradient9);
      }

      .st63 {
        fill: url(#linear-gradient215);
      }

      .st64 {
        fill: url(#linear-gradient125);
      }

      .st65 {
        fill: url(#linear-gradient217);
      }

      .st66 {
        fill: url(#linear-gradient18);
      }

      .st67 {
        fill: url(#linear-gradient61);
      }

      .st68 {
        fill: url(#linear-gradient186);
      }

      .st69 {
        fill: url(#linear-gradient101);
      }

      .st70 {
        fill: url(#linear-gradient210);
      }

      .st71 {
        fill: url(#linear-gradient132);
      }

      .st72 {
        fill: url(#linear-gradient138);
      }

      .st73 {
        fill: url(#linear-gradient179);
      }

      .st74 {
        fill: url(#linear-gradient185);
      }

      .st75 {
        fill: url(#linear-gradient23);
      }

      .st76 {
        fill: url(#linear-gradient72);
      }

      .st77 {
        fill: url(#linear-gradient43);
      }

      .st78 {
        fill: url(#linear-gradient78);
      }

      .st79 {
        fill: url(#linear-gradient69);
      }

      .st80 {
        fill: url(#linear-gradient8);
      }

      .st81 {
        fill: url(#linear-gradient11);
      }

      .st82 {
        fill: url(#linear-gradient182);
      }

      .st83 {
        fill: url(#linear-gradient161);
      }

      .st84 {
        fill: url(#linear-gradient156);
      }

      .st85 {
        fill: url(#linear-gradient183);
      }

      .st86 {
        fill: url(#linear-gradient219);
      }

      .st87 {
        fill: url(#linear-gradient104);
      }

      .st88 {
        fill: url(#linear-gradient105);
      }

      .st89 {
        fill: url(#linear-gradient153);
      }

      .st90 {
        fill: url(#linear-gradient16);
      }

      .st91 {
        fill: url(#linear-gradient135);
      }

      .st92 {
        fill: url(#linear-gradient24);
      }

      .st93 {
        fill: url(#linear-gradient95);
      }

      .st94 {
        fill: url(#linear-gradient137);
      }

      .st95 {
        fill: url(#linear-gradient140);
      }

      .st96 {
        fill: url(#linear-gradient30);
      }

      .st97 {
        fill: url(#linear-gradient159);
      }

      .st98 {
        fill: url(#linear-gradient221);
      }

      .st99 {
        fill: url(#linear-gradient168);
      }

      .st100 {
        fill: url(#linear-gradient46);
      }

      .st101 {
        fill: url(#linear-gradient114);
      }

      .st102 {
        fill: url(#linear-gradient94);
      }

      .st103 {
        fill: url(#linear-gradient202);
      }

      .st104 {
        fill: url(#linear-gradient22);
      }

      .st105 {
        fill: url(#linear-gradient108);
      }

      .st106 {
        fill: url(#linear-gradient29);
      }

      .st107 {
        fill: url(#linear-gradient204);
      }

      .st108 {
        fill: url(#linear-gradient68);
      }

      .st109 {
        fill: url(#linear-gradient49);
      }

      .st110 {
        fill: url(#linear-gradient93);
      }

      .st111 {
        fill: url(#linear-gradient106);
      }

      .st112 {
        fill: url(#linear-gradient19);
      }

      .st113 {
        fill: url(#linear-gradient12);
      }

      .st114 {
        fill: url(#linear-gradient65);
      }

      .st115 {
        fill: url(#linear-gradient128);
      }

      .st116 {
        fill: url(#linear-gradient80);
      }

      .st117 {
        fill: url(#linear-gradient142);
      }

      .st118 {
        fill: url(#linear-gradient154);
      }

      .st119 {
        fill: url(#linear-gradient42);
      }

      .st120 {
        fill: url(#linear-gradient28);
      }

      .st121 {
        fill: url(#linear-gradient100);
      }

      .st122 {
        fill: url(#linear-gradient171);
      }

      .st123 {
        fill: url(#linear-gradient177);
      }

      .st124 {
        fill: url(#linear-gradient67);
      }

      .st125 {
        fill: url(#linear-gradient40);
      }

      .st126 {
        fill: url(#linear-gradient66);
      }

      .st127 {
        fill: url(#linear-gradient84);
      }

      .st128 {
        fill: url(#linear-gradient164);
      }

      .st129 {
        fill: url(#linear-gradient111);
      }

      .st130 {
        fill: url(#linear-gradient223);
      }

      .st131 {
        fill: url(#linear-gradient62);
      }

      .st132 {
        fill: url(#linear-gradient152);
      }

      .st133 {
        fill: url(#linear-gradient7);
      }

      .st134 {
        fill: url(#linear-gradient173);
      }

      .st135 {
        fill: url(#linear-gradient59);
      }

      .st136 {
        fill: url(#linear-gradient91);
      }

      .st137 {
        fill: url(#linear-gradient20);
      }

      .st138 {
        fill: url(#linear-gradient4);
      }

      .st139 {
        fill: url(#linear-gradient31);
      }

      .st140 {
        fill: url(#linear-gradient96);
      }

      .st141 {
        fill: url(#linear-gradient79);
      }

      .st142 {
        fill: url(#linear-gradient166);
      }

      .st143 {
        fill: url(#linear-gradient98);
      }

      .st144 {
        fill: url(#linear-gradient14);
      }

      .st145 {
        fill: url(#linear-gradient5);
      }

      .st146 {
        fill: url(#linear-gradient74);
      }

      .st147 {
        fill: url(#linear-gradient145);
      }

      .st148 {
        fill: url(#linear-gradient3);
      }

      .st149 {
        fill: url(#linear-gradient149);
      }

      .st150 {
        fill: url(#linear-gradient102);
      }

      .st151 {
        fill: url(#linear-gradient87);
      }

      .st152 {
        fill: url(#linear-gradient167);
      }

      .st153 {
        fill: url(#linear-gradient55);
      }

      .st154 {
        fill: url(#linear-gradient38);
      }

      .st155 {
        fill: url(#linear-gradient25);
      }

      .st156 {
        fill: url(#linear-gradient169);
      }

      .st157 {
        fill: url(#linear-gradient172);
      }

      .st158 {
        fill: url(#linear-gradient99);
      }

      .st159 {
        fill: url(#linear-gradient121);
      }

      .st160 {
        fill: url(#linear-gradient52);
      }

      .st161 {
        fill: url(#linear-gradient15);
      }

      .st162 {
        fill: url(#linear-gradient136);
      }

      .st163 {
        fill: url(#linear-gradient144);
      }

      .st164 {
        fill: url(#linear-gradient88);
      }

      .st165 {
        fill: url(#linear-gradient181);
      }

      .st166 {
        fill: url(#linear-gradient17);
      }

      .st167 {
        fill: url(#linear-gradient165);
      }

      .st168 {
        fill: url(#linear-gradient54);
      }

      .st169 {
        fill: url(#linear-gradient213);
      }

      .st170 {
        fill: url(#linear-gradient141);
      }

      .st171 {
        fill: url(#linear-gradient50);
      }

      .st172 {
        fill: url(#linear-gradient103);
      }

      .st173 {
        fill: url(#linear-gradient224);
      }

      .st174 {
        fill: url(#linear-gradient216);
      }

      .st175 {
        fill: url(#linear-gradient124);
      }

      .st176 {
        fill: url(#linear-gradient89);
      }

      .st177 {
        fill: url(#linear-gradient51);
      }

      .st178 {
        fill: url(#linear-gradient6);
      }

      .st179 {
        fill: url(#linear-gradient92);
      }

      .st180 {
        fill: url(#linear-gradient207);
      }

      .st181 {
        fill: url(#linear-gradient77);
      }

      .st182 {
        fill: url(#linear-gradient200);
      }

      .st183 {
        fill: url(#linear-gradient117);
      }

      .st184 {
        fill: url(#linear-gradient86);
      }

      .st185 {
        fill: url(#linear-gradient64);
      }

      .st186 {
        fill: url(#linear-gradient206);
      }

      .st187 {
        fill: url(#linear-gradient90);
      }

      .st188 {
        fill: url(#linear-gradient203);
      }

      .st189 {
        fill: url(#linear-gradient188);
      }

      .st190 {
        fill: url(#linear-gradient163);
      }

      .st191 {
        fill: url(#linear-gradient115);
      }

      .st192 {
        fill: url(#linear-gradient211);
      }

      .st193 {
        fill: url(#linear-gradient70);
      }

      .st194 {
        fill: url(#linear-gradient194);
      }

      .st195 {
        fill: url(#linear-gradient184);
      }

      .st196 {
        fill: url(#linear-gradient76);
      }

      .st197 {
        fill: url(#linear-gradient48);
      }

      .st198 {
        fill: url(#linear-gradient178);
      }

      .st199 {
        fill: url(#linear-gradient193);
      }

      .st200 {
        fill: url(#linear-gradient122);
      }

      .st201 {
        fill: url(#linear-gradient13);
      }

      .st202 {
        fill: url(#linear-gradient45);
      }

      .st203 {
        fill: url(#linear-gradient222);
      }

      .st204 {
        fill: url(#linear-gradient97);
      }

      .st205 {
        fill: url(#linear-gradient157);
      }

      .st206 {
        fill: url(#linear-gradient47);
      }

      .st207 {
        fill: url(#linear-gradient60);
      }

      .st208 {
        fill: url(#linear-gradient);
      }

      .st209 {
        fill: url(#linear-gradient44);
      }

      .st210 {
        fill: url(#linear-gradient192);
      }

      .st211 {
        fill: url(#linear-gradient201);
      }

      .st212 {
        fill: url(#linear-gradient41);
      }

      .st213 {
        fill: url(#linear-gradient133);
      }

      .st214 {
        fill: url(#linear-gradient127);
      }

      .st215 {
        fill: url(#linear-gradient151);
      }

      .st216 {
        fill: url(#linear-gradient191);
      }

      .st217 {
        fill: url(#linear-gradient150);
      }

      .st218 {
        fill: url(#linear-gradient110);
      }

      .st219 {
        fill: url(#linear-gradient208);
      }

      .st220 {
        fill: url(#linear-gradient175);
      }

      .st221 {
        fill: url(#linear-gradient143);
      }

      .st222 {
        fill: url(#linear-gradient162);
      }

      .st223 {
        fill: url(#linear-gradient180);
      }

      .st224 {
        fill: url(#linear-gradient199);
      }
    </style>
    <linearGradient id="linear-gradient" x1="44.8" y1="105.9" x2="48.9" y2="105.9" gradientUnits="userSpaceOnUse">
      <stop offset="0" stop-color="#9107ad"/>
      <stop offset=".2" stop-color="#7436b6"/>
      <stop offset=".5" stop-color="#5c5ebe"/>
      <stop offset=".7" stop-color="#4b7bc4"/>
      <stop offset=".9" stop-color="#408cc7"/>
      <stop offset="1" stop-color="#3d93c9"/>
    </linearGradient>
    <linearGradient id="linear-gradient1" x1="35.4" y1="204.1" x2="58.3" y2="204.1" xlink:href="#linear-gradient"/>
    <linearGradient id="linear-gradient2" x1="26.1" y1="478.6" y2="478.6" xlink:href="#linear-gradient"/>
    <linearGradient id="linear-gradient3" x1="72.7" y1="294.5" x2="95.6" y2="294.5" xlink:href="#linear-gradient"/>
    <linearGradient id="linear-gradient4" x1="26.1" y1="383.2" y2="383.2" xlink:href="#linear-gradient"/>
    <linearGradient id="linear-gradient5" x1="26.1" y1="420.3" y2="420.3" xlink:href="#linear-gradient"/>
    <linearGradient id="linear-gradient6" x1="119.3" y1="420.3" x2="142.2" y2="420.3" xlink:href="#linear-gradient"/>
    <linearGradient id="linear-gradient7" x1="268.3" y1="173.5" x2="291.1" y2="173.5" xlink:href="#linear-gradient"/>
    <linearGradient id="linear-gradient8" x1="259" y1="114.3" x2="281.8" y2="114.3" xlink:href="#linear-gradient"/>
    <linearGradient id="linear-gradient9" x1="259" y1="222.8" x2="281.8" y2="222.8" xlink:href="#linear-gradient"/>
    <linearGradient id="linear-gradient10" x1="221.7" y1="221.2" x2="244.5" y2="221.2" xlink:href="#linear-gradient"/>
    <linearGradient id="linear-gradient11" x1="221.7" y1="392.5" x2="244.5" y2="392.5" xlink:href="#linear-gradient"/>
    <linearGradient id="linear-gradient12" x1="268.3" y1="346.7" x2="291.1" y2="346.7" xlink:href="#linear-gradient"/>
    <linearGradient id="linear-gradient13" x1="175.1" y1="346.7" x2="198" y2="346.7" xlink:href="#linear-gradient"/>
    <linearGradient id="linear-gradient14" x1="184.5" y1="650.5" x2="207.3" y2="650.5" xlink:href="#linear-gradient"/>
    <linearGradient id="linear-gradient15" x1="184.5" y1="315.6" x2="207.3" y2="315.6" xlink:href="#linear-gradient"/>
    <linearGradient id="linear-gradient16" x1="147.2" y1="569.9" x2="170" y2="569.9" xlink:href="#linear-gradient"/>
    <linearGradient id="linear-gradient17" x1="147.2" y1="631.6" x2="170" y2="631.6" xlink:href="#linear-gradient"/>
    <linearGradient id="linear-gradient18" x1="221.7" y1="889.3" x2="244.5" y2="889.3" xlink:href="#linear-gradient"/>
    <linearGradient id="linear-gradient19" x1="259" y1="579.3" x2="281.8" y2="579.3" xlink:href="#linear-gradient"/>
    <linearGradient id="linear-gradient20" x1="184.5" y1="811.9" x2="207.3" y2="811.9" xlink:href="#linear-gradient"/>
    <linearGradient id="linear-gradient21" x1="184.5" y1="956.7" x2="207.3" y2="956.7" xlink:href="#linear-gradient"/>
    <linearGradient id="linear-gradient22" x1="72.7" y1="539.6" x2="95.6" y2="539.6" xlink:href="#linear-gradient"/>
    <linearGradient id="linear-gradient23" x1="119.3" y1="683.1" x2="142.2" y2="683.1" xlink:href="#linear-gradient"/>
    <linearGradient id="linear-gradient24" x1="72.7" y1="715.4" x2="95.6" y2="715.4" xlink:href="#linear-gradient"/>
    <linearGradient id="linear-gradient25" x1="110" y1="859.5" x2="132.8" y2="859.5" xlink:href="#linear-gradient"/>
    <linearGradient id="linear-gradient26" x1="72.7" y1="918.8" x2="95.6" y2="918.8" xlink:href="#linear-gradient"/>
    <linearGradient id="linear-gradient27" x1="147.2" y1="1051.8" x2="170" y2="1051.8" xlink:href="#linear-gradient"/>
    <linearGradient id="linear-gradient28" x1="35.4" y1="701.8" x2="58.3" y2="701.8" xlink:href="#linear-gradient"/>
    <linearGradient id="linear-gradient29" x1="35.4" y1="1010.6" x2="58.3" y2="1010.6" xlink:href="#linear-gradient"/>
    <linearGradient id="linear-gradient30" x1="72.7" y1="662.9" x2="95.6" y2="662.9" xlink:href="#linear-gradient"/>
    <linearGradient id="linear-gradient31" x1="110" y1="535.5" x2="132.8" y2="535.5" xlink:href="#linear-gradient"/>
    <linearGradient id="linear-gradient32" x1="110" y1="156.5" x2="132.8" y2="156.5" xlink:href="#linear-gradient"/>
    <linearGradient id="linear-gradient33" x1="82" y1="152.4" x2="86.2" y2="152.4" xlink:href="#linear-gradient"/>
    <linearGradient id="linear-gradient34" x1="119.3" y1="82.6" x2="123.4" y2="82.6" xlink:href="#linear-gradient"/>
    <linearGradient id="linear-gradient35" x1="46.9" y1="201.7" x2="160.7" y2="201.7" xlink:href="#linear-gradient"/>
    <linearGradient id="linear-gradient36" x1="46.9" y1="268.2" x2="198" y2="268.2" xlink:href="#linear-gradient"/>
    <linearGradient id="linear-gradient37" x1="231.1" y1="96.8" x2="270.4" y2="96.8" xlink:href="#linear-gradient"/>
    <linearGradient id="linear-gradient38" x1="231.1" y1="306.2" x2="235.2" y2="306.2" xlink:href="#linear-gradient"/>
    <linearGradient id="linear-gradient39" x1="156.5" y1="442.3" x2="198" y2="442.3" xlink:href="#linear-gradient"/>
    <linearGradient id="linear-gradient40" y1="617" x2="121.3" y2="617" xlink:href="#linear-gradient"/>
    <linearGradient id="linear-gradient41" x1="82" y1="599.2" x2="123.4" y2="599.2" xlink:href="#linear-gradient"/>
    <linearGradient id="linear-gradient42" x1="156.5" y1="760.5" x2="235.2" y2="760.5" xlink:href="#linear-gradient"/>
    <linearGradient id="linear-gradient43" x1="156.5" y1="884.3" x2="198" y2="884.3" xlink:href="#linear-gradient"/>
    <linearGradient id="linear-gradient44" y1="856.5" x2="86.2" y2="856.5" xlink:href="#linear-gradient"/>
    <linearGradient id="linear-gradient45" x1="82" y1="787.8" x2="123.4" y2="787.8" xlink:href="#linear-gradient"/>
    <linearGradient id="linear-gradient46" x1="82" y1="984.1" x2="160.7" y2="984.1" xlink:href="#linear-gradient"/>
    <linearGradient id="linear-gradient47" x1="268.3" y1="61.5" x2="272.5" y2="61.5" xlink:href="#linear-gradient"/>
    <linearGradient id="linear-gradient48" x1="193.7" y1="436.4" x2="309.7" y2="436.4" xlink:href="#linear-gradient"/>
    <linearGradient id="linear-gradient49" x1="46.9" y1="420.3" x2="121.3" y2="420.3" xlink:href="#linear-gradient"/>
    <linearGradient id="linear-gradient50" x1="195.8" y1="346.7" x2="270.4" y2="346.7" xlink:href="#linear-gradient"/>
    <linearGradient id="linear-gradient51" x1="231.1" y1="825.9" x2="309.7" y2="825.9" xlink:href="#linear-gradient"/>
    <linearGradient id="linear-gradient52" x1="268.3" y1="739" x2="272.5" y2="739" xlink:href="#linear-gradient"/>
    <linearGradient id="linear-gradient53" x1="909.3" y1="905.8" x2="932.2" y2="905.8" xlink:href="#linear-gradient"/>
    <linearGradient id="linear-gradient54" x1="918.7" y1="965" x2="941.6" y2="965" xlink:href="#linear-gradient"/>
    <linearGradient id="linear-gradient55" x1="918.7" y1="856.5" x2="941.6" y2="856.5" xlink:href="#linear-gradient"/>
    <linearGradient id="linear-gradient56" x1="955.9" y1="858.1" x2="978.8" y2="858.1" xlink:href="#linear-gradient"/>
    <linearGradient id="linear-gradient57" x1="955.9" y1="686.8" x2="978.8" y2="686.8" xlink:href="#linear-gradient"/>
    <linearGradient id="linear-gradient58" x1="909.3" y1="732.6" x2="932.2" y2="732.6" xlink:href="#linear-gradient"/>
    <linearGradient id="linear-gradient59" x1="1002.5" y1="732.6" x2="1025.4" y2="732.6" xlink:href="#linear-gradient"/>
    <linearGradient id="linear-gradient60" x1="993.2" y1="428.8" x2="1016.1" y2="428.8" xlink:href="#linear-gradient"/>
    <linearGradient id="linear-gradient61" x1="993.1" y1="763.7" x2="1016.1" y2="763.7" xlink:href="#linear-gradient"/>
    <linearGradient id="linear-gradient62" x1="1030.5" y1="509.4" x2="1053.3" y2="509.4" xlink:href="#linear-gradient"/>
    <linearGradient id="linear-gradient63" x1="1030.5" y1="447.7" x2="1053.3" y2="447.7" xlink:href="#linear-gradient"/>
    <linearGradient id="linear-gradient64" x1="955.9" y1="189.9" x2="978.8" y2="189.9" xlink:href="#linear-gradient"/>
    <linearGradient id="linear-gradient65" x1="918.7" y1="500" x2="941.6" y2="500" xlink:href="#linear-gradient"/>
    <linearGradient id="linear-gradient66" x1="993.1" y1="267.4" x2="1016.1" y2="267.4" xlink:href="#linear-gradient"/>
    <linearGradient id="linear-gradient67" x1="993.1" y1="122.6" x2="1016.1" y2="122.6" xlink:href="#linear-gradient"/>
    <linearGradient id="linear-gradient68" x1="930.1" y1="982.5" x2="969.4" y2="982.5" xlink:href="#linear-gradient"/>
    <linearGradient id="linear-gradient69" x1="965.3" y1="773.1" x2="969.4" y2="773.1" xlink:href="#linear-gradient"/>
    <linearGradient id="linear-gradient70" x1="1002.5" y1="637" x2="1043.9" y2="637" xlink:href="#linear-gradient"/>
    <linearGradient id="linear-gradient71" x1="965.3" y1="318.8" x2="1043.9" y2="318.8" xlink:href="#linear-gradient"/>
    <linearGradient id="linear-gradient72" x1="1002.5" y1="195" x2="1043.9" y2="195" xlink:href="#linear-gradient"/>
    <linearGradient id="linear-gradient73" x1="928" y1="1017.8" x2="932.2" y2="1017.8" xlink:href="#linear-gradient"/>
    <linearGradient id="linear-gradient74" x1="890.8" y1="642.9" x2="1006.7" y2="642.9" xlink:href="#linear-gradient"/>
    <linearGradient id="linear-gradient75" x1="930.1" y1="732.6" x2="1004.6" y2="732.6" xlink:href="#linear-gradient"/>
    <linearGradient id="linear-gradient76" x1="890.8" y1="254.2" x2="969.4" y2="254.2" xlink:href="#linear-gradient"/>
    <linearGradient id="linear-gradient77" x1="928" y1="340.3" x2="932.2" y2="340.3" xlink:href="#linear-gradient"/>
    <linearGradient id="linear-gradient78" x1="858.8" y1="973.4" x2="862.9" y2="973.4" xlink:href="#linear-gradient"/>
    <linearGradient id="linear-gradient79" x1="849.4" y1="875.2" x2="872.3" y2="875.2" xlink:href="#linear-gradient"/>
    <linearGradient id="linear-gradient80" x1="858.8" y1="600.7" x2="881.6" y2="600.7" xlink:href="#linear-gradient"/>
    <linearGradient id="linear-gradient81" x1="812.1" y1="784.8" x2="835" y2="784.8" xlink:href="#linear-gradient"/>
    <linearGradient id="linear-gradient82" x1="858.8" y1="696.1" x2="881.6" y2="696.1" xlink:href="#linear-gradient"/>
    <linearGradient id="linear-gradient83" x1="616.6" y1="905.8" x2="639.4" y2="905.8" xlink:href="#linear-gradient"/>
    <linearGradient id="linear-gradient84" x1="625.9" y1="965" x2="648.7" y2="965" xlink:href="#linear-gradient"/>
    <linearGradient id="linear-gradient85" x1="625.9" y1="856.5" x2="648.7" y2="856.5" xlink:href="#linear-gradient"/>
    <linearGradient id="linear-gradient86" x1="663.2" y1="858.1" x2="686" y2="858.1" xlink:href="#linear-gradient"/>
    <linearGradient id="linear-gradient87" x1="663.2" y1="686.8" x2="686" y2="686.8" xlink:href="#linear-gradient"/>
    <linearGradient id="linear-gradient88" x1="616.6" y1="732.6" x2="639.4" y2="732.6" xlink:href="#linear-gradient"/>
    <linearGradient id="linear-gradient89" x1="709.7" y1="732.6" x2="732.6" y2="732.6" xlink:href="#linear-gradient"/>
    <linearGradient id="linear-gradient90" x1="700.4" y1="428.8" x2="723.2" y2="428.8" xlink:href="#linear-gradient"/>
    <linearGradient id="linear-gradient91" x1="700.4" y1="763.7" x2="723.2" y2="763.7" xlink:href="#linear-gradient"/>
    <linearGradient id="linear-gradient92" x1="737.7" y1="509.4" x2="760.5" y2="509.4" xlink:href="#linear-gradient"/>
    <linearGradient id="linear-gradient93" x1="737.7" y1="447.7" x2="760.5" y2="447.7" xlink:href="#linear-gradient"/>
    <linearGradient id="linear-gradient94" x1="663.2" y1="189.9" x2="686" y2="189.9" xlink:href="#linear-gradient"/>
    <linearGradient id="linear-gradient95" x1="625.9" y1="500" x2="648.7" y2="500" xlink:href="#linear-gradient"/>
    <linearGradient id="linear-gradient96" x1="700.4" y1="267.4" x2="723.2" y2="267.4" xlink:href="#linear-gradient"/>
    <linearGradient id="linear-gradient97" x1="700.4" y1="122.6" x2="723.2" y2="122.6" xlink:href="#linear-gradient"/>
    <linearGradient id="linear-gradient98" x1="812.1" y1="539.6" x2="835" y2="539.6" xlink:href="#linear-gradient"/>
    <linearGradient id="linear-gradient99" x1="765.5" y1="396.2" x2="788.4" y2="396.2" xlink:href="#linear-gradient"/>
    <linearGradient id="linear-gradient100" x1="812.1" y1="363.9" x2="835" y2="363.9" xlink:href="#linear-gradient"/>
    <linearGradient id="linear-gradient101" x1="774.9" y1="219.8" x2="797.7" y2="219.8" xlink:href="#linear-gradient"/>
    <linearGradient id="linear-gradient102" x1="812.1" y1="160.5" x2="835" y2="160.5" xlink:href="#linear-gradient"/>
    <linearGradient id="linear-gradient103" x1="737.7" y1="27.5" x2="760.5" y2="27.5" xlink:href="#linear-gradient"/>
    <linearGradient id="linear-gradient104" x1="849.4" y1="377.5" x2="872.3" y2="377.5" xlink:href="#linear-gradient"/>
    <linearGradient id="linear-gradient105" x1="849.4" y1="68.7" x2="872.3" y2="68.7" xlink:href="#linear-gradient"/>
    <linearGradient id="linear-gradient106" x1="812.1" y1="416.4" x2="835" y2="416.4" xlink:href="#linear-gradient"/>
    <linearGradient id="linear-gradient107" x1="774.9" y1="543.8" x2="797.7" y2="543.8" xlink:href="#linear-gradient"/>
    <linearGradient id="linear-gradient108" x1="774.9" y1="922.8" x2="797.7" y2="922.8" xlink:href="#linear-gradient"/>
    <linearGradient id="linear-gradient109" x1="821.5" y1="926.9" x2="825.7" y2="926.9" xlink:href="#linear-gradient"/>
    <linearGradient id="linear-gradient110" x1="784.3" y1="996.7" x2="788.4" y2="996.7" xlink:href="#linear-gradient"/>
    <linearGradient id="linear-gradient111" x1="747" y1="877.6" x2="860.8" y2="877.6" xlink:href="#linear-gradient"/>
    <linearGradient id="linear-gradient112" x1="709.7" y1="811.1" x2="860.8" y2="811.1" xlink:href="#linear-gradient"/>
    <linearGradient id="linear-gradient113" x1="637.3" y1="982.5" x2="676.6" y2="982.5" xlink:href="#linear-gradient"/>
    <linearGradient id="linear-gradient114" x1="672.5" y1="773.1" x2="676.6" y2="773.1" xlink:href="#linear-gradient"/>
    <linearGradient id="linear-gradient115" x1="709.7" y1="637" x2="751.2" y2="637" xlink:href="#linear-gradient"/>
    <linearGradient id="linear-gradient116" x1="786.3" y1="462.3" x2="862.9" y2="462.3" xlink:href="#linear-gradient"/>
    <linearGradient id="linear-gradient117" x1="784.3" y1="480.1" x2="825.7" y2="480.1" xlink:href="#linear-gradient"/>
    <linearGradient id="linear-gradient118" x1="672.5" y1="318.8" x2="751.2" y2="318.8" xlink:href="#linear-gradient"/>
    <linearGradient id="linear-gradient119" x1="709.7" y1="195" x2="751.2" y2="195" xlink:href="#linear-gradient"/>
    <linearGradient id="linear-gradient120" x1="821.5" y1="222.8" x2="862.9" y2="222.8" xlink:href="#linear-gradient"/>
    <linearGradient id="linear-gradient121" x1="784.3" y1="291.5" x2="825.7" y2="291.5" xlink:href="#linear-gradient"/>
    <linearGradient id="linear-gradient122" x1="747" y1="95.2" x2="825.7" y2="95.2" xlink:href="#linear-gradient"/>
    <linearGradient id="linear-gradient123" x1="635.2" y1="1017.8" x2="639.4" y2="1017.8" xlink:href="#linear-gradient"/>
    <linearGradient id="linear-gradient124" x1="598" y1="642.9" x2="713.9" y2="642.9" xlink:href="#linear-gradient"/>
    <linearGradient id="linear-gradient125" x1="858.8" y1="658.9" x2="881.6" y2="658.9" xlink:href="#linear-gradient"/>
    <linearGradient id="linear-gradient126" x1="765.5" y1="658.9" x2="788.4" y2="658.9" xlink:href="#linear-gradient"/>
    <linearGradient id="linear-gradient127" x1="786.3" y1="659" x2="860.8" y2="659" xlink:href="#linear-gradient"/>
    <linearGradient id="linear-gradient128" x1="340.8" y1="938" x2="363.6" y2="938" xlink:href="#linear-gradient"/>
    <linearGradient id="linear-gradient129" x1="247.5" y1="938" x2="270.4" y2="938" xlink:href="#linear-gradient"/>
    <linearGradient id="linear-gradient130" x1="268.4" y1="938" x2="342.8" y2="938" xlink:href="#linear-gradient"/>
    <linearGradient id="linear-gradient131" x1="294.2" y1="954.8" x2="317" y2="954.8" xlink:href="#linear-gradient"/>
    <linearGradient id="linear-gradient132" x1="294.2" y1="1048" x2="317" y2="1048" xlink:href="#linear-gradient"/>
    <linearGradient id="linear-gradient133" x1="303.5" y1="1001.4" x2="307.7" y2="1001.4" xlink:href="#linear-gradient"/>
    <linearGradient id="linear-gradient134" x1="294.2" y1="432" x2="317" y2="432" xlink:href="#linear-gradient"/>
    <linearGradient id="linear-gradient135" x1="294.2" y1="525.2" x2="317" y2="525.2" xlink:href="#linear-gradient"/>
    <linearGradient id="linear-gradient136" x1="303.5" y1="478.6" x2="307.7" y2="478.6" xlink:href="#linear-gradient"/>
    <linearGradient id="linear-gradient137" x1="879.4" y1="462.8" x2="902.2" y2="462.8" xlink:href="#linear-gradient"/>
    <linearGradient id="linear-gradient138" x1="879.4" y1="556" x2="902.2" y2="556" xlink:href="#linear-gradient"/>
    <linearGradient id="linear-gradient139" x1="888.7" y1="509.4" x2="892.9" y2="509.4" xlink:href="#linear-gradient"/>
    <linearGradient id="linear-gradient140" x1="995.3" y1="921.2" x2="1018.1" y2="921.2" xlink:href="#linear-gradient"/>
    <linearGradient id="linear-gradient141" x1="995.3" y1="1014.4" x2="1018.1" y2="1014.4" xlink:href="#linear-gradient"/>
    <linearGradient id="linear-gradient142" x1="1004.6" y1="967.8" x2="1008.8" y2="967.8" xlink:href="#linear-gradient"/>
    <linearGradient id="linear-gradient143" x1="598" y1="48.6" x2="620.8" y2="48.6" xlink:href="#linear-gradient"/>
    <linearGradient id="linear-gradient144" x1="598" y1="141.7" x2="620.8" y2="141.7" xlink:href="#linear-gradient"/>
    <linearGradient id="linear-gradient145" x1="607.3" y1="95.1" x2="611.5" y2="95.1" xlink:href="#linear-gradient"/>
    <linearGradient id="linear-gradient146" x1="897.6" y1="48.6" x2="920.5" y2="48.6" xlink:href="#linear-gradient"/>
    <linearGradient id="linear-gradient147" x1="897.6" y1="141.7" x2="920.5" y2="141.7" xlink:href="#linear-gradient"/>
    <linearGradient id="linear-gradient148" x1="907" y1="95.1" x2="911.2" y2="95.1" xlink:href="#linear-gradient"/>
    <linearGradient id="linear-gradient149" x1="1025.4" y1="48.5" x2="1048.3" y2="48.5" xlink:href="#linear-gradient"/>
    <linearGradient id="linear-gradient150" x1="1025.4" y1="141.7" x2="1048.3" y2="141.7" xlink:href="#linear-gradient"/>
    <linearGradient id="linear-gradient151" x1="1034.8" y1="95.1" x2="1038.9" y2="95.1" xlink:href="#linear-gradient"/>
    <linearGradient id="linear-gradient152" x1="1025.4" y1="791.1" x2="1048.3" y2="791.1" xlink:href="#linear-gradient"/>
    <linearGradient id="linear-gradient153" x1="1025.4" y1="884.3" x2="1048.3" y2="884.3" xlink:href="#linear-gradient"/>
    <linearGradient id="linear-gradient154" x1="1034.8" y1="837.7" x2="1038.9" y2="837.7" xlink:href="#linear-gradient"/>
    <linearGradient id="linear-gradient155" x1="586.5" y1="523.3" x2="609.4" y2="523.3" xlink:href="#linear-gradient"/>
    <linearGradient id="linear-gradient156" x1="586.5" y1="616.5" x2="609.4" y2="616.5" xlink:href="#linear-gradient"/>
    <linearGradient id="linear-gradient157" x1="596" y1="569.8" x2="600.1" y2="569.8" xlink:href="#linear-gradient"/>
    <linearGradient id="linear-gradient158" x1="858.8" y1="738.2" x2="881.6" y2="738.2" xlink:href="#linear-gradient"/>
    <linearGradient id="linear-gradient159" x1="858.8" y1="831.4" x2="881.6" y2="831.4" xlink:href="#linear-gradient"/>
    <linearGradient id="linear-gradient160" x1="868.1" y1="784.8" x2="872.3" y2="784.8" xlink:href="#linear-gradient"/>
    <linearGradient id="linear-gradient161" x1="637.3" y1="732.6" x2="711.9" y2="732.6" xlink:href="#linear-gradient"/>
    <linearGradient id="linear-gradient162" x1="598" y1="254.2" x2="676.6" y2="254.2" xlink:href="#linear-gradient"/>
    <linearGradient id="linear-gradient163" x1="635.2" y1="340.3" x2="639.4" y2="340.3" xlink:href="#linear-gradient"/>
    <linearGradient id="linear-gradient164" x1="566.3" x2="570.5" xlink:href="#linear-gradient"/>
    <linearGradient id="linear-gradient165" x1="557" y1="204.1" x2="579.9" y2="204.1" xlink:href="#linear-gradient"/>
    <linearGradient id="linear-gradient166" x1="566.3" y1="478.6" x2="589.2" y2="478.6" xlink:href="#linear-gradient"/>
    <linearGradient id="linear-gradient167" x1="519.7" y1="294.5" x2="542.6" y2="294.5" xlink:href="#linear-gradient"/>
    <linearGradient id="linear-gradient168" x1="566.3" y1="383.2" x2="589.2" y2="383.2" xlink:href="#linear-gradient"/>
    <linearGradient id="linear-gradient169" x1="566.3" y1="420.4" x2="589.2" y2="420.4" xlink:href="#linear-gradient"/>
    <linearGradient id="linear-gradient170" x1="473.1" y1="420.3" x2="496" y2="420.3" xlink:href="#linear-gradient"/>
    <linearGradient id="linear-gradient171" x1="324.1" y1="173.5" x2="347" y2="173.5" xlink:href="#linear-gradient"/>
    <linearGradient id="linear-gradient172" x1="333.4" y1="114.3" x2="356.3" y2="114.3" xlink:href="#linear-gradient"/>
    <linearGradient id="linear-gradient173" x1="333.4" y1="222.8" x2="356.3" y2="222.8" xlink:href="#linear-gradient"/>
    <linearGradient id="linear-gradient174" x1="370.8" y1="221.2" x2="393.6" y2="221.2" xlink:href="#linear-gradient"/>
    <linearGradient id="linear-gradient175" x1="370.8" y1="392.5" x2="393.6" y2="392.5" xlink:href="#linear-gradient"/>
    <linearGradient id="linear-gradient176" x1="324.1" y1="346.7" x2="347" y2="346.7" xlink:href="#linear-gradient"/>
    <linearGradient id="linear-gradient177" x1="417.3" y1="346.7" x2="440.2" y2="346.7" xlink:href="#linear-gradient"/>
    <linearGradient id="linear-gradient178" x1="408" y1="650.5" x2="430.8" y2="650.5" xlink:href="#linear-gradient"/>
    <linearGradient id="linear-gradient179" x1="408" y1="315.6" x2="430.8" y2="315.6" xlink:href="#linear-gradient"/>
    <linearGradient id="linear-gradient180" x1="445.2" y1="569.9" x2="468.1" y2="569.9" xlink:href="#linear-gradient"/>
    <linearGradient id="linear-gradient181" x1="445.2" y1="631.6" x2="468.1" y2="631.6" xlink:href="#linear-gradient"/>
    <linearGradient id="linear-gradient182" x1="370.8" y1="889.3" x2="393.6" y2="889.3" xlink:href="#linear-gradient"/>
    <linearGradient id="linear-gradient183" x1="333.4" y1="579.3" x2="356.3" y2="579.3" xlink:href="#linear-gradient"/>
    <linearGradient id="linear-gradient184" x1="408" y1="811.9" x2="430.8" y2="811.9" xlink:href="#linear-gradient"/>
    <linearGradient id="linear-gradient185" x1="408" y1="956.7" x2="430.8" y2="956.7" xlink:href="#linear-gradient"/>
    <linearGradient id="linear-gradient186" x1="519.7" y1="539.6" x2="542.6" y2="539.6" xlink:href="#linear-gradient"/>
    <linearGradient id="linear-gradient187" x1="473.1" y1="683.1" x2="496" y2="683.1" xlink:href="#linear-gradient"/>
    <linearGradient id="linear-gradient188" x1="519.7" y1="715.4" x2="542.5" y2="715.4" xlink:href="#linear-gradient"/>
    <linearGradient id="linear-gradient189" x1="482.5" y1="859.5" x2="505.3" y2="859.5" xlink:href="#linear-gradient"/>
    <linearGradient id="linear-gradient190" x1="519.7" y1="918.8" x2="542.5" y2="918.8" xlink:href="#linear-gradient"/>
    <linearGradient id="linear-gradient191" x1="445.2" y1="1051.8" x2="468.1" y2="1051.8" xlink:href="#linear-gradient"/>
    <linearGradient id="linear-gradient192" x1="557" y1="701.8" x2="579.9" y2="701.8" xlink:href="#linear-gradient"/>
    <linearGradient id="linear-gradient193" x1="557" y1="1010.6" x2="579.9" y2="1010.6" xlink:href="#linear-gradient"/>
    <linearGradient id="linear-gradient194" x1="519.7" y1="662.9" x2="542.5" y2="662.9" xlink:href="#linear-gradient"/>
    <linearGradient id="linear-gradient195" x1="482.5" y1="535.5" x2="505.3" y2="535.5" xlink:href="#linear-gradient"/>
    <linearGradient id="linear-gradient196" x1="482.5" y1="156.5" x2="505.3" y2="156.5" xlink:href="#linear-gradient"/>
    <linearGradient id="linear-gradient197" x1="529.1" y1="152.4" x2="533.3" y2="152.4" xlink:href="#linear-gradient"/>
    <linearGradient id="linear-gradient198" x1="491.9" y1="82.6" x2="496" y2="82.6" xlink:href="#linear-gradient"/>
    <linearGradient id="linear-gradient199" x1="454.6" y1="201.7" x2="568.4" y2="201.7" xlink:href="#linear-gradient"/>
    <linearGradient id="linear-gradient200" x1="417.3" y1="268.2" x2="568.4" y2="268.2" xlink:href="#linear-gradient"/>
    <linearGradient id="linear-gradient201" x1="344.9" y1="96.8" x2="384.2" y2="96.8" xlink:href="#linear-gradient"/>
    <linearGradient id="linear-gradient202" x1="380.1" y1="306.2" x2="384.2" y2="306.2" xlink:href="#linear-gradient"/>
    <linearGradient id="linear-gradient203" x1="417.3" y1="442.3" x2="458.8" y2="442.3" xlink:href="#linear-gradient"/>
    <linearGradient id="linear-gradient204" x1="493.9" y1="617" x2="570.5" y2="617" xlink:href="#linear-gradient"/>
    <linearGradient id="linear-gradient205" x1="491.9" y1="599.2" x2="533.3" y2="599.2" xlink:href="#linear-gradient"/>
    <linearGradient id="linear-gradient206" x1="380.1" y1="760.5" x2="458.8" y2="760.5" xlink:href="#linear-gradient"/>
    <linearGradient id="linear-gradient207" x1="417.3" y1="884.3" x2="458.8" y2="884.3" xlink:href="#linear-gradient"/>
    <linearGradient id="linear-gradient208" x1="529.1" y1="856.5" x2="570.5" y2="856.5" xlink:href="#linear-gradient"/>
    <linearGradient id="linear-gradient209" x1="491.9" y1="787.8" x2="533.3" y2="787.8" xlink:href="#linear-gradient"/>
    <linearGradient id="linear-gradient210" x1="454.6" y1="984.1" x2="533.3" y2="984.1" xlink:href="#linear-gradient"/>
    <linearGradient id="linear-gradient211" x1="342.8" y1="61.5" x2="347" y2="61.5" xlink:href="#linear-gradient"/>
    <linearGradient id="linear-gradient212" x1="305.6" y1="436.4" x2="421.5" y2="436.4" xlink:href="#linear-gradient"/>
    <linearGradient id="linear-gradient213" x1="493.9" y1="420.3" x2="568.4" y2="420.3" xlink:href="#linear-gradient"/>
    <linearGradient id="linear-gradient214" x1="344.9" y1="346.7" x2="419.4" y2="346.7" xlink:href="#linear-gradient"/>
    <linearGradient id="linear-gradient215" x1="305.6" y1="825.6" x2="384.2" y2="825.6" xlink:href="#linear-gradient"/>
    <linearGradient id="linear-gradient216" x1="342.8" y1="739" x2="347" y2="739" xlink:href="#linear-gradient"/>
    <linearGradient id="linear-gradient217" x1="259" y1="779.8" x2="281.8" y2="779.8" xlink:href="#linear-gradient"/>
    <linearGradient id="linear-gradient218" x1="333.5" y1="779.8" x2="356.3" y2="779.8" xlink:href="#linear-gradient"/>
    <linearGradient id="linear-gradient219" x1="333.5" y1="698.2" x2="356.3" y2="698.2" xlink:href="#linear-gradient"/>
    <linearGradient id="linear-gradient220" x1="625.8" y1="379" x2="648.6" y2="379" xlink:href="#linear-gradient"/>
    <linearGradient id="linear-gradient221" x1="625.8" y1="299.5" x2="648.6" y2="299.5" xlink:href="#linear-gradient"/>
    <linearGradient id="linear-gradient222" x1="918.7" y1="299.5" x2="941.5" y2="299.5" xlink:href="#linear-gradient"/>
    <linearGradient id="linear-gradient223" x1="918.7" y1="378.9" x2="941.5" y2="378.9" xlink:href="#linear-gradient"/>
    <linearGradient id="linear-gradient224" x1="259" y1="698.2" x2="281.8" y2="698.2" xlink:href="#linear-gradient"/>
  </defs>
  <g>
    <rect class="st208" x="44.8" y="18.1" width="4.2" height="175.6"/>
    <path class="st58" d="M58.3,204c0,6.3-5.1,11.5-11.5,11.5s-11.5-5.1-11.5-11.5,5.1-11.4,11.5-11.4,11.5,5.1,11.5,11.4ZM39.6,204c0,4.1,3.3,7.3,7.3,7.3s7.3-3.3,7.3-7.3-3.3-7.3-7.3-7.3-7.3,3.3-7.3,7.3Z"/>
    <path class="st7" d="M48.9,478.6c0,6.3-5.1,11.5-11.5,11.5s-11.4-5.1-11.4-11.5,5.1-11.5,11.4-11.5,11.5,5.1,11.5,11.5ZM30.3,478.6c0,4,3.2,7.3,7.2,7.3s7.3-3.3,7.3-7.3-3.3-7.3-7.3-7.3-7.2,3.3-7.2,7.3Z"/>
    <path class="st148" d="M95.6,294.5c0,6.3-5.1,11.5-11.5,11.5s-11.5-5.1-11.5-11.5,5.1-11.4,11.5-11.4,11.5,5.1,11.5,11.4ZM76.8,294.5c0,4,3.3,7.3,7.3,7.3s7.3-3.2,7.3-7.3-3.3-7.3-7.3-7.3-7.3,3.3-7.3,7.3Z"/>
    <path class="st138" d="M48.9,383.2c0,6.3-5.1,11.5-11.5,11.5s-11.4-5.1-11.4-11.5,5.1-11.4,11.4-11.4,11.5,5.1,11.5,11.4ZM30.3,383.2c0,4.1,3.2,7.3,7.2,7.3s7.3-3.3,7.3-7.3-3.3-7.3-7.3-7.3-7.2,3.3-7.2,7.3Z"/>
    <path class="st145" d="M48.9,420.3c0,6.3-5.1,11.5-11.5,11.5s-11.4-5.1-11.4-11.5,5.1-11.5,11.4-11.5,11.5,5.1,11.5,11.5ZM30.3,420.3c0,4,3.2,7.3,7.2,7.3s7.3-3.3,7.3-7.3-3.3-7.3-7.3-7.3-7.2,3.3-7.2,7.3Z"/>
    <path class="st178" d="M142.2,420.3c0,6.3-5.1,11.5-11.4,11.5s-11.5-5.1-11.5-11.5,5.1-11.5,11.5-11.5,11.4,5.1,11.4,11.5ZM123.4,420.3c0,4,3.3,7.3,7.3,7.3s7.3-3.3,7.3-7.3-3.3-7.3-7.3-7.3-7.3,3.3-7.3,7.3Z"/>
    <path class="st133" d="M291.1,173.5c0,6.3-5.1,11.4-11.4,11.4s-11.5-5.1-11.5-11.4,5.1-11.4,11.5-11.4,11.4,5.1,11.4,11.4ZM272.5,173.5c0,4.1,3.2,7.3,7.3,7.3s7.2-3.3,7.2-7.3-3.3-7.3-7.2-7.3-7.3,3.3-7.3,7.3Z"/>
    <path class="st80" d="M281.8,114.2c0,6.3-5.1,11.5-11.5,11.5s-11.4-5.1-11.4-11.5,5.1-11.4,11.4-11.4,11.5,5.1,11.5,11.4ZM263.1,114.2c0,4.1,3.2,7.3,7.3,7.3s7.3-3.3,7.3-7.3-3.3-7.3-7.3-7.3-7.3,3.3-7.3,7.3Z"/>
    <path class="st62" d="M281.8,222.8c0,6.3-5.1,11.4-11.5,11.4s-11.4-5.1-11.4-11.4,5.1-11.4,11.4-11.4,11.5,5.1,11.5,11.4ZM263.1,222.8c0,4.1,3.2,7.2,7.3,7.2s7.3-3.3,7.3-7.2-3.3-7.3-7.3-7.3-7.3,3.2-7.3,7.3Z"/>
    <path class="st28" d="M244.5,221.2c0,6.3-5.1,11.4-11.4,11.4s-11.5-5.1-11.5-11.4,5.1-11.4,11.5-11.4,11.4,5.1,11.4,11.4ZM225.9,221.2c0,4.1,3.2,7.3,7.3,7.3s7.2-3.3,7.2-7.3-3.3-7.3-7.2-7.3-7.3,3.2-7.3,7.3Z"/>
    <path class="st81" d="M244.5,392.6c0,6.3-5.1,11.4-11.4,11.4s-11.5-5.1-11.5-11.4,5.1-11.5,11.5-11.5,11.4,5.1,11.4,11.5ZM225.9,392.6c0,4,3.3,7.2,7.3,7.2s7.2-3.3,7.2-7.2-3.3-7.3-7.2-7.3-7.3,3.2-7.3,7.3Z"/>
    <path class="st113" d="M291.1,346.7c0,6.3-5.1,11.4-11.4,11.4s-11.5-5.1-11.5-11.4,5.1-11.5,11.5-11.5,11.4,5.1,11.4,11.5ZM272.5,346.7c0,4,3.3,7.3,7.3,7.3s7.2-3.3,7.2-7.3-3.3-7.3-7.2-7.3-7.3,3.3-7.3,7.3Z"/>
    <path class="st201" d="M198,346.7c0,6.3-5.1,11.4-11.5,11.4s-11.5-5.1-11.5-11.4,5.1-11.5,11.5-11.5,11.5,5.1,11.5,11.5ZM179.2,346.7c0,4,3.3,7.3,7.3,7.3s7.3-3.3,7.3-7.3-3.3-7.3-7.3-7.3-7.3,3.3-7.3,7.3Z"/>
    <path class="st144" d="M207.3,650.5c0,6.3-5.1,11.5-11.5,11.5s-11.4-5.1-11.4-11.5,5.1-11.5,11.4-11.5,11.5,5.2,11.5,11.5ZM188.6,650.5c0,4.1,3.2,7.3,7.2,7.3s7.3-3.2,7.3-7.3-3.3-7.3-7.3-7.3-7.2,3.3-7.2,7.3Z"/>
    <path class="st161" d="M207.3,315.6c0,6.3-5.1,11.4-11.4,11.4s-11.5-5.1-11.5-11.4,5.1-11.5,11.5-11.5,11.4,5.1,11.4,11.5ZM188.6,315.6c0,4,3.3,7.2,7.3,7.2s7.2-3.3,7.2-7.2-3.3-7.3-7.2-7.3-7.3,3.2-7.3,7.3Z"/>
    <path class="st90" d="M170,569.9c0,6.3-5.1,11.5-11.5,11.5s-11.4-5.2-11.4-11.5,5.1-11.5,11.4-11.5,11.5,5.2,11.5,11.5ZM151.4,569.9c0,4.1,3.2,7.3,7.2,7.3s7.3-3.2,7.3-7.3-3.3-7.3-7.3-7.3-7.2,3.2-7.2,7.3Z"/>
    <path class="st166" d="M170,631.6c0,6.3-5.1,11.5-11.5,11.5s-11.4-5.2-11.4-11.5,5.1-11.5,11.4-11.5,11.5,5.2,11.5,11.5ZM151.4,631.6c0,4.1,3.2,7.3,7.2,7.3s7.3-3.2,7.3-7.3-3.3-7.3-7.3-7.3-7.2,3.2-7.2,7.3Z"/>
    <path class="st66" d="M244.5,889.3c0,6.3-5.1,11.5-11.4,11.5s-11.5-5.2-11.5-11.5,5.1-11.5,11.5-11.5,11.4,5.2,11.4,11.5ZM225.9,889.3c0,4,3.3,7.3,7.3,7.3s7.2-3.2,7.2-7.3-3.2-7.3-7.2-7.3-7.3,3.2-7.3,7.3Z"/>
    <path class="st112" d="M281.8,579.2c0,6.3-5.1,11.5-11.5,11.5s-11.4-5.1-11.4-11.5,5.1-11.5,11.4-11.5,11.5,5.2,11.5,11.5ZM263.1,579.2c0,4.1,3.3,7.3,7.3,7.3s7.3-3.2,7.3-7.3-3.3-7.3-7.3-7.3-7.3,3.3-7.3,7.3Z"/>
    <path class="st137" d="M207.3,811.9c0,6.3-5.1,11.5-11.4,11.5s-11.5-5.1-11.5-11.5,5.1-11.4,11.5-11.4,11.4,5.1,11.4,11.4ZM188.6,811.9c0,4.1,3.3,7.3,7.3,7.3s7.2-3.3,7.2-7.3-3.2-7.3-7.2-7.3-7.3,3.3-7.3,7.3Z"/>
    <path class="st39" d="M207.3,956.7c0,6.3-5.1,11.5-11.4,11.5s-11.5-5.1-11.5-11.5,5.1-11.5,11.5-11.5,11.4,5.2,11.4,11.5ZM188.6,956.7c0,4,3.3,7.3,7.3,7.3s7.2-3.3,7.2-7.3-3.2-7.3-7.2-7.3-7.3,3.3-7.3,7.3Z"/>
    <path class="st104" d="M95.6,539.6c0,6.3-5.1,11.5-11.5,11.5s-11.5-5.1-11.5-11.5,5.1-11.5,11.5-11.5,11.5,5.1,11.5,11.5ZM76.8,539.6c0,4,3.3,7.3,7.3,7.3s7.3-3.3,7.3-7.3-3.3-7.3-7.3-7.3-7.3,3.3-7.3,7.3Z"/>
    <path class="st75" d="M142.2,683.1c0,6.3-5.1,11.5-11.4,11.5s-11.5-5.2-11.5-11.5,5.1-11.5,11.5-11.5,11.4,5.2,11.4,11.5ZM123.4,683.1c0,4.1,3.3,7.3,7.3,7.3s7.3-3.2,7.3-7.3-3.3-7.3-7.3-7.3-7.3,3.2-7.3,7.3Z"/>
    <path class="st92" d="M95.6,715.4c0,6.3-5.1,11.5-11.5,11.5s-11.4-5.2-11.4-11.5,5.1-11.5,11.4-11.5,11.5,5.1,11.5,11.5ZM76.9,715.4c0,4,3.2,7.3,7.2,7.3s7.3-3.3,7.3-7.3-3.3-7.3-7.3-7.3-7.2,3.2-7.2,7.3Z"/>
    <path class="st155" d="M132.8,859.5c0,6.3-5.1,11.5-11.5,11.5s-11.4-5.2-11.4-11.5,5.1-11.5,11.4-11.5,11.5,5.1,11.5,11.5ZM114.1,859.5c0,4,3.2,7.3,7.2,7.3s7.3-3.3,7.3-7.3-3.3-7.3-7.3-7.3-7.2,3.2-7.2,7.3Z"/>
    <path class="st57" d="M95.6,918.8c0,6.3-5.1,11.5-11.5,11.5s-11.4-5.2-11.4-11.5,5.1-11.5,11.4-11.5,11.5,5.2,11.5,11.5ZM76.9,918.8c0,4,3.2,7.3,7.2,7.3s7.3-3.2,7.3-7.3-3.3-7.3-7.3-7.3-7.2,3.2-7.2,7.3Z"/>
    <path class="st45" d="M170,1051.8c0,6.3-5.1,11.5-11.5,11.5s-11.4-5.2-11.4-11.5,5.1-11.5,11.4-11.5,11.5,5.2,11.5,11.5ZM151.4,1051.8c0,4,3.2,7.3,7.2,7.3s7.3-3.2,7.3-7.3-3.3-7.3-7.3-7.3-7.2,3.3-7.2,7.3Z"/>
    <path class="st120" d="M58.3,701.8c0,6.3-5.1,11.5-11.5,11.5s-11.5-5.1-11.5-11.5,5.1-11.5,11.5-11.5,11.5,5.2,11.5,11.5ZM39.6,701.8c0,4.1,3.3,7.3,7.3,7.3s7.3-3.2,7.3-7.3-3.3-7.3-7.3-7.3-7.3,3.3-7.3,7.3Z"/>
    <path class="st106" d="M58.3,1010.6c0,6.3-5.1,11.5-11.5,11.5s-11.5-5.1-11.5-11.5,5.1-11.5,11.5-11.5,11.5,5.2,11.5,11.5ZM39.6,1010.6c0,4.1,3.3,7.3,7.3,7.3s7.3-3.2,7.3-7.3-3.3-7.3-7.3-7.3-7.3,3.3-7.3,7.3Z"/>
    <path class="st96" d="M95.6,662.9c0,6.3-5.1,11.5-11.5,11.5s-11.4-5.2-11.4-11.5,5.1-11.5,11.4-11.5,11.5,5.2,11.5,11.5ZM76.9,662.9c0,4.1,3.2,7.3,7.2,7.3s7.3-3.2,7.3-7.3-3.3-7.3-7.3-7.3-7.2,3.2-7.2,7.3Z"/>
    <path class="st139" d="M132.8,535.5c0,6.3-5.1,11.5-11.5,11.5s-11.4-5.1-11.4-11.5,5.1-11.5,11.4-11.5,11.5,5.1,11.5,11.5ZM114.1,535.5c0,4,3.2,7.3,7.2,7.3s7.3-3.3,7.3-7.3-3.3-7.3-7.3-7.3-7.2,3.3-7.2,7.3Z"/>
    <path class="st36" d="M132.8,156.5c0,6.3-5.1,11.4-11.5,11.4s-11.4-5.1-11.4-11.4,5.1-11.5,11.4-11.5,11.5,5.1,11.5,11.5ZM114.1,156.5c0,4,3.2,7.2,7.2,7.2s7.3-3.3,7.3-7.2-3.2-7.3-7.3-7.3-7.2,3.3-7.2,7.3Z"/>
    <rect class="st27" x="82" y="18.1" width="4.2" height="268.6"/>
    <rect class="st19" x="119.3" y="18.1" width="4.2" height="129.1"/>
    <polygon class="st54" points="160.7 18.1 160.7 235.7 123.4 235.7 123.4 385.3 46.9 385.3 46.9 381.1 119.3 381.1 119.3 231.5 156.5 231.5 156.5 18.1 160.7 18.1"/>
    <polygon class="st14" points="198 18.1 198 297.9 160.7 297.9 160.7 450.4 123.4 450.4 123.4 518.3 82 518.3 82 480.7 46.9 480.7 46.9 476.5 86.2 476.5 86.2 514.1 119.3 514.1 119.3 446.3 156.5 446.3 156.5 293.7 193.8 293.7 193.8 18.1 198 18.1"/>
    <polygon class="st42" points="270.4 171.4 270.4 175.6 231.1 175.6 231.1 18.1 235.2 18.1 235.2 171.4 270.4 171.4"/>
    <rect class="st154" x="231.1" y="229.3" width="4.2" height="153.9"/>
    <polygon class="st15" points="198 324.1 198 490.1 160.7 490.1 160.7 560.5 156.5 560.5 156.5 485.9 193.8 485.9 193.8 324.1 198 324.1"/>
    <polygon class="st125" points="121.3 681 121.3 685.2 44.8 685.2 44.8 614.5 82 614.5 82 548.8 86.2 548.8 86.2 618.6 48.9 618.6 48.9 681 121.3 681"/>
    <polygon class="st212" points="123.4 544.9 123.4 636.5 86.2 636.5 86.2 653.5 82 653.5 82 632.4 119.3 632.4 119.3 544.9 123.4 544.9"/>
    <polygon class="st119" points="235.2 711.9 235.2 880 231.1 880 231.1 716.1 198 716.1 198 763.4 156.5 763.4 156.5 640.9 160.7 640.9 160.7 759.3 193.8 759.3 193.8 711.9 235.2 711.9"/>
    <polygon class="st77" points="198 821.3 198 869.5 160.7 869.5 160.7 901.8 197.9 901.8 197.9 947.4 193.7 947.4 193.7 906 156.5 906 156.5 865.3 193.8 865.3 193.8 821.3 198 821.3"/>
    <polygon class="st209" points="86.2 809.9 86.2 891.4 48.9 891.4 48.9 1001.2 44.8 1001.2 44.8 887.3 82 887.3 82 814 44.8 814 44.8 711.8 48.9 711.8 48.9 809.9 86.2 809.9"/>
    <polygon class="st202" points="123.4 786.2 123.4 850.9 119.3 850.9 119.3 790.3 82 790.3 82 724.8 86.2 724.8 86.2 786.2 123.4 786.2"/>
    <polygon class="st100" points="160.7 956.1 160.7 1040 156.5 1040 156.5 960.3 123.4 960.3 123.4 990.3 82 990.3 82 928.2 86.2 928.2 86.2 986.1 119.3 986.1 119.3 956.1 160.7 956.1"/>
    <rect class="st206" x="268.3" y="18.1" width="4.2" height="86.8"/>
    <polygon class="st197" points="309.7 321.1 309.7 402.7 272.5 402.7 272.5 479.1 235.2 479.1 235.2 565.2 197.9 565.2 197.9 640.9 193.7 640.9 193.7 561 231.1 561 231.1 475 268.3 475 268.3 398.5 305.6 398.5 305.6 325.3 268.3 325.3 268.3 231.9 272.5 231.9 272.5 321.1 309.7 321.1"/>
    <rect class="st109" x="46.9" y="418.3" width="74.5" height="4.2"/>
    <rect class="st171" x="195.8" y="344.6" width="74.6" height="4.2"/>
    <polygon class="st177" points="309.7 680.5 309.7 800.8 272.5 800.8 272.5 917.2 235.2 917.2 235.2 1062.8 231.1 1062.8 231.1 913 268.3 913 268.3 796.6 305.6 796.6 305.6 684.6 268.3 684.6 268.3 588.9 272.5 588.9 272.5 680.5 309.7 680.5"/>
    <rect class="st160" x="268.3" y="709.6" width="4.2" height="58.7"/>
  </g>
  <g>
    <path class="st49" d="M932.2,905.8c0,6.3-5.2,11.5-11.5,11.5s-11.5-5.1-11.5-11.5,5.2-11.4,11.5-11.4,11.5,5.1,11.5,11.4ZM913.5,905.8c0,4.1,3.2,7.3,7.3,7.3s7.3-3.2,7.3-7.3-3.3-7.2-7.3-7.2-7.3,3.3-7.3,7.2Z"/>
    <path class="st168" d="M941.6,965.1c0,6.3-5.2,11.4-11.5,11.4s-11.5-5.1-11.5-11.4,5.2-11.5,11.5-11.5,11.5,5.1,11.5,11.5ZM922.8,965.1c0,4,3.2,7.2,7.3,7.2s7.3-3.3,7.3-7.2-3.2-7.3-7.3-7.3-7.3,3.2-7.3,7.3Z"/>
    <path class="st153" d="M941.6,856.5c0,6.3-5.2,11.4-11.5,11.4s-11.5-5.1-11.5-11.4,5.2-11.4,11.5-11.4,11.5,5.1,11.5,11.4ZM922.8,856.5c0,4.1,3.2,7.2,7.3,7.2s7.3-3.2,7.3-7.2-3.2-7.2-7.3-7.2-7.3,3.2-7.3,7.2Z"/>
    <path class="st43" d="M978.8,858.1c0,6.3-5.1,11.4-11.5,11.4s-11.5-5.1-11.5-11.4,5.2-11.4,11.5-11.4,11.5,5.1,11.5,11.4ZM960.1,858.1c0,4,3.3,7.2,7.3,7.2s7.3-3.2,7.3-7.2-3.2-7.2-7.3-7.2-7.3,3.2-7.3,7.2Z"/>
    <path class="st50" d="M978.8,686.8c0,6.3-5.1,11.5-11.5,11.5s-11.5-5.2-11.5-11.5,5.2-11.4,11.5-11.4,11.5,5.1,11.5,11.4ZM960.1,686.8c0,4,3.3,7.3,7.3,7.3s7.3-3.2,7.3-7.3-3.3-7.3-7.3-7.3-7.3,3.3-7.3,7.3Z"/>
    <path class="st20" d="M932.2,732.6c0,6.3-5.2,11.5-11.5,11.5s-11.5-5.1-11.5-11.5,5.2-11.5,11.5-11.5,11.5,5.2,11.5,11.5ZM913.5,732.6c0,4.1,3.2,7.3,7.3,7.3s7.3-3.2,7.3-7.3-3.3-7.3-7.3-7.3-7.3,3.3-7.3,7.3Z"/>
    <path class="st135" d="M1025.4,732.6c0,6.3-5.2,11.5-11.5,11.5s-11.5-5.1-11.5-11.5,5.1-11.5,11.5-11.5,11.5,5.2,11.5,11.5ZM1006.7,732.6c0,4.1,3.2,7.3,7.3,7.3s7.3-3.2,7.3-7.3-3.3-7.3-7.3-7.3-7.3,3.3-7.3,7.3Z"/>
    <path class="st207" d="M1016.1,428.8c0,6.3-5.2,11.4-11.5,11.4s-11.4-5.1-11.4-11.4,5.1-11.5,11.4-11.5,11.5,5.1,11.5,11.5ZM997.4,428.8c0,4,3.3,7.3,7.2,7.3s7.3-3.3,7.3-7.3-3.3-7.3-7.3-7.3-7.2,3.3-7.2,7.3Z"/>
    <path class="st67" d="M1016.1,763.7c0,6.3-5.2,11.5-11.5,11.5s-11.5-5.1-11.5-11.5,5.1-11.4,11.5-11.4,11.5,5.1,11.5,11.4ZM997.3,763.7c0,4,3.3,7.3,7.3,7.3s7.3-3.2,7.3-7.3-3.3-7.2-7.3-7.2-7.3,3.3-7.3,7.2Z"/>
    <path class="st131" d="M1053.3,509.4c0,6.3-5.2,11.5-11.5,11.5s-11.4-5.1-11.4-11.5,5.1-11.5,11.4-11.5,11.5,5.1,11.5,11.5ZM1034.6,509.4c0,4,3.2,7.3,7.2,7.3s7.3-3.3,7.3-7.3-3.2-7.3-7.3-7.3-7.2,3.3-7.2,7.3Z"/>
    <path class="st29" d="M1053.3,447.7c0,6.3-5.2,11.5-11.5,11.5s-11.4-5.1-11.4-11.5,5.1-11.5,11.4-11.5,11.5,5.1,11.5,11.5ZM1034.6,447.7c0,4,3.2,7.3,7.2,7.3s7.3-3.3,7.3-7.3-3.2-7.3-7.3-7.3-7.2,3.3-7.2,7.3Z"/>
    <path class="st185" d="M978.8,189.9c0,6.3-5.1,11.5-11.5,11.5s-11.5-5.1-11.5-11.5,5.2-11.5,11.5-11.5,11.5,5.1,11.5,11.5ZM960.1,189.9c0,4,3.3,7.3,7.3,7.3s7.3-3.3,7.3-7.3-3.3-7.3-7.3-7.3-7.3,3.3-7.3,7.3Z"/>
    <path class="st114" d="M941.6,500c0,6.3-5.2,11.4-11.5,11.4s-11.5-5.1-11.5-11.4,5.2-11.5,11.5-11.5,11.5,5.1,11.5,11.5ZM922.8,500c0,4,3.2,7.3,7.3,7.3s7.3-3.3,7.3-7.3-3.2-7.3-7.3-7.3-7.3,3.3-7.3,7.3Z"/>
    <path class="st126" d="M1016.1,267.4c0,6.3-5.2,11.5-11.5,11.5s-11.5-5.1-11.5-11.5,5.1-11.5,11.5-11.5,11.5,5.1,11.5,11.5ZM997.3,267.4c0,4,3.3,7.3,7.3,7.3s7.3-3.3,7.3-7.3-3.3-7.3-7.3-7.3-7.3,3.3-7.3,7.3Z"/>
    <path class="st124" d="M1016.1,122.6c0,6.3-5.2,11.5-11.5,11.5s-11.5-5.1-11.5-11.5,5.1-11.5,11.5-11.5,11.5,5.1,11.5,11.5ZM997.3,122.6c0,4,3.3,7.3,7.3,7.3s7.3-3.3,7.3-7.3-3.3-7.3-7.3-7.3-7.3,3.3-7.3,7.3Z"/>
    <polygon class="st108" points="969.4 903.7 969.4 1061.2 965.3 1061.2 965.3 907.9 930.1 907.9 930.1 903.7 969.4 903.7"/>
    <rect class="st79" x="965.3" y="696.1" width="4.1" height="153.9"/>
    <polygon class="st193" points="1043.9 518.8 1043.9 593.4 1006.7 593.4 1006.7 755.2 1002.5 755.2 1002.5 589.2 1039.7 589.2 1039.7 518.8 1043.9 518.8"/>
    <polygon class="st34" points="1043.9 315.9 1043.9 438.4 1039.7 438.4 1039.7 320.1 1006.7 320.1 1006.7 367.4 965.3 367.4 965.3 199.3 969.4 199.3 969.4 363.2 1002.5 363.2 1002.5 315.9 1043.9 315.9"/>
    <polygon class="st76" points="1043.9 173.3 1043.9 214 1006.7 214 1006.7 258 1002.5 258 1002.5 209.8 1039.7 209.8 1039.7 177.5 1002.5 177.5 1002.5 131.9 1006.7 131.9 1006.7 173.3 1043.9 173.3"/>
    <rect class="st23" x="928" y="974.4" width="4.2" height="86.8"/>
    <polygon class="st146" points="1006.7 438.4 1006.7 518.3 969.4 518.3 969.4 604.3 932.2 604.3 932.2 680.8 894.9 680.8 894.9 754 932.2 754 932.2 847.4 928 847.4 928 758.2 890.8 758.2 890.8 676.7 928 676.7 928 600.2 965.3 600.2 965.3 514.1 1002.5 514.1 1002.5 438.4 1006.7 438.4"/>
    <rect class="st6" x="930.1" y="730.5" width="74.5" height="4.2"/>
    <polygon class="st196" points="969.4 18.1 969.4 167.4 932.2 167.4 932.2 283.4 894.9 283.4 894.9 395 932.2 395 932.2 490.4 928 490.4 928 399.1 890.8 399.1 890.8 279.2 928 279.2 928 163.3 965.3 163.3 965.3 18.1 969.4 18.1"/>
    <rect class="st181" x="928" y="311" width="4.2" height="58.7"/>
  </g>
  <rect class="st78" x="858.8" y="885.6" width="4.2" height="175.6"/>
  <path class="st141" d="M872.3,875.2c0,6.3-5.2,11.5-11.5,11.5s-11.5-5.1-11.5-11.5,5.1-11.5,11.5-11.5,11.5,5.2,11.5,11.5ZM853.5,875.2c0,4.1,3.3,7.3,7.3,7.3s7.3-3.3,7.3-7.3-3.3-7.3-7.3-7.3-7.3,3.3-7.3,7.3Z"/>
  <path class="st116" d="M881.6,600.7c0,6.3-5.1,11.4-11.4,11.4s-11.5-5.1-11.5-11.4,5.1-11.5,11.5-11.5,11.4,5.2,11.4,11.5ZM862.9,600.7c0,4.1,3.2,7.2,7.3,7.2s7.2-3.2,7.2-7.2-3.3-7.3-7.2-7.3-7.3,3.2-7.3,7.3Z"/>
  <path class="st10" d="M835,784.8c0,6.3-5.1,11.4-11.5,11.4s-11.5-5.1-11.5-11.4,5.2-11.5,11.5-11.5,11.5,5.2,11.5,11.5ZM816.3,784.8c0,4,3.3,7.2,7.3,7.2s7.3-3.2,7.3-7.2-3.3-7.3-7.3-7.3-7.3,3.2-7.3,7.3Z"/>
  <path class="st33" d="M881.6,696.1c0,6.3-5.1,11.5-11.4,11.5s-11.5-5.2-11.5-11.5,5.1-11.5,11.5-11.5,11.4,5.1,11.4,11.5ZM862.9,696.1c0,4,3.2,7.3,7.3,7.3s7.2-3.3,7.2-7.3-3.3-7.3-7.2-7.3-7.3,3.3-7.3,7.3Z"/>
  <path class="st24" d="M639.4,905.8c0,6.3-5.1,11.5-11.5,11.5s-11.3-5.1-11.3-11.5,5.1-11.4,11.3-11.4,11.5,5.1,11.5,11.4ZM620.7,905.8c0,4.1,3.3,7.3,7.2,7.3s7.3-3.3,7.3-7.3-3.2-7.2-7.3-7.2-7.2,3.3-7.2,7.2Z"/>
  <path class="st127" d="M648.7,965c0,6.3-5.1,11.4-11.5,11.4s-11.4-5.1-11.4-11.4,5.1-11.4,11.4-11.4,11.5,5.1,11.5,11.4ZM630,965c0,4,3.3,7.3,7.3,7.3s7.3-3.3,7.3-7.3-3.2-7.3-7.3-7.3-7.3,3.3-7.3,7.3Z"/>
  <path class="st40" d="M648.7,856.5c0,6.3-5.1,11.4-11.5,11.4s-11.4-5.1-11.4-11.4,5.1-11.5,11.4-11.5,11.5,5.2,11.5,11.5ZM630,856.5c0,4,3.3,7.2,7.3,7.2s7.3-3.2,7.3-7.2-3.3-7.3-7.3-7.3-7.3,3.3-7.3,7.3Z"/>
  <path class="st184" d="M686,858.1c0,6.3-5.2,11.4-11.5,11.4s-11.4-5.1-11.4-11.4,5.1-11.5,11.4-11.5,11.5,5.2,11.5,11.5ZM667.3,858.1c0,4,3.2,7.2,7.2,7.2s7.3-3.2,7.3-7.2-3.3-7.3-7.3-7.3-7.2,3.2-7.2,7.3Z"/>
  <path class="st151" d="M686,686.8c0,6.3-5.2,11.5-11.5,11.5s-11.4-5.2-11.4-11.5,5.1-11.4,11.4-11.4,11.5,5.1,11.5,11.4ZM667.3,686.8c0,4,3.2,7.3,7.2,7.3s7.3-3.2,7.3-7.3-3.2-7.3-7.3-7.3-7.2,3.3-7.2,7.3Z"/>
  <path class="st164" d="M639.4,732.6c0,6.3-5.1,11.4-11.5,11.4s-11.3-5.1-11.3-11.4,5.1-11.5,11.3-11.5,11.5,5.2,11.5,11.5ZM620.7,732.6c0,4,3.3,7.2,7.2,7.2s7.3-3.2,7.3-7.2-3.3-7.3-7.3-7.3-7.2,3.3-7.2,7.3Z"/>
  <path class="st176" d="M732.6,732.6c0,6.3-5.1,11.4-11.5,11.4s-11.5-5.1-11.5-11.4,5.2-11.5,11.5-11.5,11.5,5.2,11.5,11.5ZM713.9,732.6c0,4,3.3,7.2,7.3,7.2s7.3-3.2,7.3-7.2-3.3-7.3-7.3-7.3-7.3,3.3-7.3,7.3Z"/>
  <path class="st187" d="M723.2,428.8c0,6.3-5.1,11.4-11.4,11.4s-11.5-5.1-11.5-11.4,5.2-11.5,11.5-11.5,11.4,5.1,11.4,11.5ZM704.6,428.8c0,4,3.3,7.3,7.3,7.3s7.2-3.3,7.2-7.3-3.3-7.3-7.2-7.3-7.3,3.3-7.3,7.3Z"/>
  <path class="st136" d="M723.2,763.7c0,6.3-5.1,11.5-11.5,11.5s-11.4-5.1-11.4-11.5,5.1-11.4,11.4-11.4,11.5,5.1,11.5,11.4ZM704.6,763.7c0,4,3.3,7.3,7.2,7.3s7.3-3.2,7.3-7.3-3.2-7.2-7.3-7.2-7.2,3.3-7.2,7.2Z"/>
  <path class="st179" d="M760.5,509.4c0,6.3-5.1,11.5-11.3,11.5s-11.5-5.1-11.5-11.5,5.1-11.5,11.5-11.5,11.3,5.1,11.3,11.5ZM741.8,509.4c0,4,3.3,7.3,7.3,7.3s7.2-3.3,7.2-7.3-3.3-7.3-7.2-7.3-7.3,3.3-7.3,7.3Z"/>
  <path class="st110" d="M760.5,447.7c0,6.3-5.1,11.5-11.3,11.5s-11.5-5.1-11.5-11.5,5.1-11.5,11.5-11.5,11.3,5.1,11.3,11.5ZM741.8,447.7c0,4,3.3,7.3,7.3,7.3s7.2-3.3,7.2-7.3-3.3-7.3-7.2-7.3-7.3,3.3-7.3,7.3Z"/>
  <path class="st102" d="M686,189.9c0,6.3-5.2,11.5-11.5,11.5s-11.4-5.1-11.4-11.5,5.1-11.5,11.4-11.5,11.5,5.1,11.5,11.5ZM667.3,189.9c0,4,3.2,7.3,7.2,7.3s7.3-3.3,7.3-7.3-3.3-7.3-7.3-7.3-7.2,3.3-7.2,7.3Z"/>
  <path class="st93" d="M648.7,500c0,6.3-5.1,11.4-11.5,11.4s-11.4-5.1-11.4-11.4,5.1-11.5,11.4-11.5,11.5,5.1,11.5,11.5ZM630,500c0,4,3.3,7.3,7.3,7.3s7.3-3.3,7.3-7.3-3.3-7.3-7.3-7.3-7.3,3.3-7.3,7.3Z"/>
  <path class="st140" d="M723.2,267.4c0,6.3-5.1,11.5-11.5,11.5s-11.4-5.1-11.4-11.5,5.1-11.5,11.4-11.5,11.5,5.1,11.5,11.5ZM704.6,267.4c0,4,3.3,7.3,7.2,7.3s7.3-3.3,7.3-7.3-3.3-7.3-7.3-7.3-7.2,3.3-7.2,7.3Z"/>
  <path class="st204" d="M723.2,122.6c0,6.3-5.1,11.5-11.5,11.5s-11.4-5.1-11.4-11.5,5.1-11.5,11.4-11.5,11.5,5.1,11.5,11.5ZM704.6,122.6c0,4,3.3,7.3,7.2,7.3s7.3-3.3,7.3-7.3-3.3-7.3-7.3-7.3-7.2,3.3-7.2,7.3Z"/>
  <path class="st143" d="M835,539.6c0,6.3-5.1,11.5-11.5,11.5s-11.5-5.1-11.5-11.5,5.2-11.5,11.5-11.5,11.5,5.1,11.5,11.5ZM816.3,539.6c0,4,3.3,7.3,7.3,7.3s7.3-3.3,7.3-7.3-3.3-7.3-7.3-7.3-7.3,3.3-7.3,7.3Z"/>
  <path class="st158" d="M788.4,396.2c0,6.3-5.2,11.5-11.5,11.5s-11.5-5.1-11.5-11.5,5.2-11.5,11.5-11.5,11.5,5.1,11.5,11.5ZM769.7,396.2c0,4,3.2,7.3,7.3,7.3s7.3-3.3,7.3-7.3-3.3-7.3-7.3-7.3-7.3,3.3-7.3,7.3Z"/>
  <path class="st121" d="M835,363.9c0,6.3-5.1,11.5-11.4,11.5s-11.5-5.1-11.5-11.5,5.2-11.5,11.5-11.5,11.4,5.1,11.4,11.5ZM816.3,363.9c0,4,3.3,7.3,7.3,7.3s7.2-3.3,7.2-7.3-3.3-7.3-7.2-7.3-7.3,3.3-7.3,7.3Z"/>
  <path class="st69" d="M797.7,219.8c0,6.3-5.1,11.5-11.4,11.5s-11.5-5.1-11.5-11.5,5.2-11.4,11.5-11.4,11.4,5.1,11.4,11.4ZM779.1,219.8c0,4.1,3.2,7.3,7.3,7.3s7.2-3.3,7.2-7.3-3.2-7.3-7.2-7.3-7.3,3.3-7.3,7.3Z"/>
  <path class="st150" d="M835,160.5c0,6.3-5.1,11.5-11.4,11.5s-11.5-5.1-11.5-11.5,5.2-11.5,11.5-11.5,11.4,5.1,11.4,11.5ZM816.3,160.5c0,4,3.3,7.3,7.3,7.3s7.2-3.3,7.2-7.3-3.3-7.3-7.2-7.3-7.3,3.3-7.3,7.3Z"/>
  <path class="st172" d="M760.5,27.5c0,6.3-5.1,11.5-11.3,11.5s-11.5-5.1-11.5-11.5,5.1-11.5,11.5-11.5,11.3,5.1,11.3,11.5ZM741.8,27.5c0,4,3.3,7.3,7.3,7.3s7.2-3.3,7.2-7.3-3.3-7.3-7.2-7.3-7.3,3.2-7.3,7.3Z"/>
  <path class="st87" d="M872.3,377.5c0,6.3-5.2,11.4-11.5,11.4s-11.5-5.1-11.5-11.4,5.1-11.5,11.5-11.5,11.5,5.1,11.5,11.5ZM853.5,377.5c0,4,3.3,7.3,7.3,7.3s7.3-3.3,7.3-7.3-3.3-7.3-7.3-7.3-7.3,3.3-7.3,7.3Z"/>
  <path class="st88" d="M872.3,68.7c0,6.3-5.2,11.5-11.5,11.5s-11.5-5.1-11.5-11.5,5.1-11.5,11.5-11.5,11.5,5.1,11.5,11.5ZM853.5,68.7c0,4,3.3,7.3,7.3,7.3s7.3-3.3,7.3-7.3-3.3-7.3-7.3-7.3-7.3,3.3-7.3,7.3Z"/>
  <path class="st111" d="M835,416.4c0,6.3-5.1,11.5-11.4,11.5s-11.5-5.1-11.5-11.5,5.2-11.5,11.5-11.5,11.4,5.1,11.4,11.5ZM816.3,416.4c0,4,3.3,7.3,7.3,7.3s7.2-3.3,7.2-7.3-3.3-7.3-7.2-7.3-7.3,3.3-7.3,7.3Z"/>
  <path class="st17" d="M797.7,543.8c0,6.3-5.1,11.5-11.4,11.5s-11.5-5.1-11.5-11.5,5.2-11.5,11.5-11.5,11.4,5.1,11.4,11.5ZM779.1,543.8c0,4,3.2,7.3,7.3,7.3s7.2-3.3,7.2-7.3-3.2-7.3-7.2-7.3-7.3,3.3-7.3,7.3Z"/>
  <path class="st105" d="M797.7,922.8c0,6.3-5.1,11.5-11.4,11.5s-11.5-5.2-11.5-11.5,5.2-11.4,11.5-11.4,11.4,5.1,11.4,11.4ZM779.1,922.8c0,4,3.2,7.3,7.3,7.3s7.2-3.3,7.2-7.3-3.2-7.3-7.2-7.3-7.3,3.2-7.3,7.3Z"/>
  <rect class="st60" x="821.5" y="792.6" width="4.1" height="268.6"/>
  <rect class="st218" x="784.3" y="932.1" width="4.2" height="129.1"/>
  <polygon class="st129" points="860.8 694 860.8 698.2 788.4 698.2 788.4 847.8 751.2 847.8 751.2 1061.2 747 1061.2 747 843.6 784.3 843.6 784.3 694 860.8 694"/>
  <polygon class="st41" points="860.8 598.6 860.8 602.8 821.5 602.8 821.5 565.2 788.4 565.2 788.4 633 751.2 633 751.2 785.6 713.9 785.6 713.9 1061.2 709.7 1061.2 709.7 781.4 747 781.4 747 628.8 784.3 628.8 784.3 561 825.7 561 825.7 598.6 860.8 598.6"/>
  <polygon class="st53" points="676.6 903.7 676.6 1061.2 672.5 1061.2 672.5 907.9 637.3 907.9 637.3 903.7 676.6 903.7"/>
  <rect class="st101" x="672.5" y="696.1" width="4.2" height="153.9"/>
  <polygon class="st191" points="751.2 518.8 751.2 593.4 713.9 593.4 713.9 755.2 709.7 755.2 709.7 589.2 747 589.2 747 518.8 751.2 518.8"/>
  <polygon class="st55" points="862.9 394.1 862.9 464.8 825.7 464.8 825.7 530.5 821.5 530.5 821.5 460.6 858.8 460.6 858.8 398.3 786.3 398.3 786.3 394.1 862.9 394.1"/>
  <polygon class="st183" points="825.7 425.8 825.7 446.9 788.4 446.9 788.4 534.4 784.3 534.4 784.3 442.8 821.5 442.8 821.5 425.8 825.7 425.8"/>
  <polygon class="st59" points="751.2 315.9 751.2 438.4 747 438.4 747 320.1 713.9 320.1 713.9 367.4 672.5 367.4 672.5 199.3 676.6 199.3 676.6 363.2 709.7 363.2 709.7 315.9 751.2 315.9"/>
  <polygon class="st56" points="751.2 173.3 751.2 214 713.9 214 713.9 258 709.7 258 709.7 209.8 747 209.8 747 177.5 709.8 177.5 709.8 131.9 713.9 131.9 713.9 173.3 751.2 173.3"/>
  <polygon class="st12" points="862.9 78.1 862.9 192 825.7 192 825.7 265.3 862.9 265.3 862.9 367.5 858.8 367.5 858.8 269.5 821.5 269.5 821.5 187.9 858.8 187.9 858.8 78.1 862.9 78.1"/>
  <polygon class="st159" points="825.7 289 825.7 354.5 821.5 354.5 821.5 293.1 784.3 293.1 784.3 228.5 788.4 228.5 788.4 289 825.7 289"/>
  <polygon class="st200" points="825.7 89 825.7 151.1 821.5 151.1 821.5 93.2 788.4 93.2 788.4 123.2 747 123.2 747 39.3 751.2 39.3 751.2 119 784.3 119 784.3 89 825.7 89"/>
  <rect class="st37" x="635.2" y="974.4" width="4.1" height="86.8"/>
  <polygon class="st175" points="713.9 438.4 713.9 518.3 676.6 518.3 676.6 604.3 639.4 604.3 639.4 680.8 602.1 680.8 602.1 754 639.4 754 639.4 847.4 635.2 847.4 635.2 758.2 598 758.2 598 676.7 635.2 676.7 635.2 600.2 672.5 600.2 672.5 514.1 709.8 514.1 709.8 438.4 713.9 438.4"/>
  <g>
    <g>
      <path class="st64" d="M881.6,658.9c0,6.3-5.1,11.4-11.4,11.4s-11.5-5.1-11.5-11.4,5.1-11.5,11.5-11.5,11.4,5.2,11.4,11.5ZM862.9,658.9c0,4.1,3.2,7.3,7.3,7.3s7.2-3.3,7.2-7.3-3.3-7.3-7.2-7.3-7.3,3.3-7.3,7.3Z"/>
      <path class="st48" d="M788.4,658.9c0,6.3-5.2,11.4-11.5,11.4s-11.5-5.1-11.5-11.4,5.2-11.5,11.5-11.5,11.5,5.2,11.5,11.5ZM769.7,658.9c0,4.1,3.2,7.3,7.3,7.3s7.3-3.3,7.3-7.3-3.3-7.3-7.3-7.3-7.3,3.3-7.3,7.3Z"/>
    </g>
    <rect class="st214" x="786.3" y="656.9" width="74.5" height="4.1"/>
  </g>
  <g>
    <g>
      <path class="st115" d="M363.6,938c0,6.3-5.1,11.4-11.4,11.4s-11.5-5.1-11.5-11.4,5.1-11.5,11.5-11.5,11.4,5.2,11.4,11.5ZM344.9,938c0,4.1,3.2,7.2,7.3,7.2s7.2-3.2,7.2-7.2-3.3-7.3-7.2-7.3-7.3,3.3-7.3,7.3Z"/>
      <path class="st26" d="M270.4,938c0,6.3-5.1,11.4-11.4,11.4s-11.5-5.1-11.5-11.4,5.1-11.5,11.5-11.5,11.4,5.2,11.4,11.5ZM251.7,938c0,4.1,3.2,7.2,7.3,7.2s7.3-3.2,7.3-7.2-3.3-7.3-7.3-7.3-7.3,3.3-7.3,7.3Z"/>
    </g>
    <rect class="st18" x="268.4" y="935.9" width="74.5" height="4.2"/>
  </g>
  <g>
    <g>
      <path class="st21" d="M305.6,943.4c6.3,0,11.4,5.1,11.4,11.4s-5.1,11.4-11.4,11.4-11.5-5.1-11.5-11.4,5.1-11.4,11.5-11.4ZM305.6,962.1c4.1,0,7.2-3.2,7.2-7.3s-3.3-7.2-7.2-7.2-7.3,3.3-7.3,7.2,3.3,7.3,7.3,7.3Z"/>
      <path class="st71" d="M305.6,1036.6c6.3,0,11.4,5.1,11.4,11.4s-5.1,11.5-11.4,11.5-11.5-5.1-11.5-11.5,5.1-11.4,11.5-11.4ZM305.6,1055.3c4.1,0,7.2-3.2,7.2-7.3s-3.3-7.3-7.2-7.3-7.3,3.3-7.3,7.3,3.3,7.3,7.3,7.3Z"/>
    </g>
    <rect class="st213" x="303.5" y="964.2" width="4.2" height="74.5"/>
  </g>
  <g>
    <g>
      <path class="st2" d="M305.6,420.6c6.3,0,11.4,5.1,11.4,11.4s-5.1,11.5-11.4,11.5-11.5-5.1-11.5-11.5,5.1-11.4,11.5-11.4ZM305.6,439.3c4.1,0,7.2-3.2,7.2-7.3s-3.3-7.2-7.2-7.2-7.3,3.3-7.3,7.2,3.3,7.3,7.3,7.3Z"/>
      <path class="st91" d="M305.6,513.7c6.3,0,11.4,5.1,11.4,11.5s-5.1,11.5-11.4,11.5-11.5-5.1-11.5-11.5,5.1-11.5,11.5-11.5ZM305.6,532.5c4.1,0,7.2-3.2,7.2-7.3s-3.3-7.3-7.2-7.3-7.3,3.3-7.3,7.3,3.3,7.3,7.3,7.3Z"/>
    </g>
    <rect class="st162" x="303.5" y="441.3" width="4.2" height="74.5"/>
  </g>
  <g>
    <g>
      <path class="st94" d="M890.8,451.4c6.3,0,11.4,5.1,11.4,11.4s-5.1,11.5-11.4,11.5-11.5-5.1-11.5-11.5,5.1-11.4,11.5-11.4ZM890.8,470.1c4.1,0,7.2-3.2,7.2-7.3s-3.3-7.2-7.2-7.2-7.3,3.3-7.3,7.2,3.2,7.3,7.3,7.3Z"/>
      <path class="st72" d="M890.8,544.5c6.3,0,11.4,5.1,11.4,11.5s-5.1,11.4-11.4,11.4-11.5-5.1-11.5-11.4,5.1-11.5,11.5-11.5ZM890.8,563.3c4.1,0,7.2-3.2,7.2-7.3s-3.3-7.3-7.2-7.3-7.3,3.3-7.3,7.3,3.2,7.3,7.3,7.3Z"/>
    </g>
    <rect class="st3" x="888.7" y="472.1" width="4.2" height="74.5"/>
  </g>
  <g>
    <g>
      <path class="st95" d="M1006.7,909.8c6.3,0,11.4,5.1,11.4,11.4s-5.1,11.5-11.4,11.5-11.5-5.2-11.5-11.5,5.1-11.4,11.5-11.4ZM1006.7,928.4c4.1,0,7.2-3.2,7.2-7.3s-3.3-7.2-7.2-7.2-7.3,3.2-7.3,7.2,3.3,7.3,7.3,7.3Z"/>
      <path class="st170" d="M1006.7,1002.9c6.3,0,11.4,5.1,11.4,11.5s-5.1,11.5-11.4,11.5-11.5-5.2-11.5-11.5,5.1-11.5,11.5-11.5ZM1006.7,1021.7c4.1,0,7.2-3.2,7.2-7.3s-3.3-7.3-7.2-7.3-7.3,3.3-7.3,7.3,3.3,7.3,7.3,7.3Z"/>
    </g>
    <rect class="st117" x="1004.6" y="930.5" width="4.1" height="74.5"/>
  </g>
  <g>
    <g>
      <path class="st221" d="M609.4,37.2c6.3,0,11.4,5.1,11.4,11.4s-5.1,11.4-11.4,11.4-11.5-5.1-11.5-11.4,5.2-11.4,11.5-11.4ZM609.4,55.8c4.1,0,7.3-3.2,7.3-7.3s-3.3-7.2-7.3-7.2-7.3,3.3-7.3,7.2,3.3,7.3,7.3,7.3Z"/>
      <path class="st163" d="M609.4,130.3c6.3,0,11.4,5.1,11.4,11.5s-5.1,11.4-11.4,11.4-11.5-5.1-11.5-11.4,5.2-11.5,11.5-11.5ZM609.4,149c4.1,0,7.3-3.2,7.3-7.3s-3.3-7.3-7.3-7.3-7.3,3.3-7.3,7.3,3.3,7.3,7.3,7.3Z"/>
    </g>
    <rect class="st147" x="607.3" y="57.9" width="4.2" height="74.5"/>
  </g>
  <g>
    <g>
      <path class="st46" d="M909.1,37.2c6.3,0,11.4,5.1,11.4,11.4s-5.1,11.4-11.4,11.4-11.5-5.1-11.5-11.4,5.2-11.4,11.5-11.4ZM909.1,55.8c4.1,0,7.2-3.2,7.2-7.3s-3.2-7.2-7.2-7.2-7.3,3.3-7.3,7.2,3.2,7.3,7.3,7.3Z"/>
      <path class="st30" d="M909.1,130.3c6.3,0,11.4,5.1,11.4,11.5s-5.1,11.4-11.4,11.4-11.5-5.1-11.5-11.4,5.2-11.5,11.5-11.5ZM909.1,149c4.1,0,7.2-3.2,7.2-7.3s-3.2-7.3-7.2-7.3-7.3,3.3-7.3,7.3,3.2,7.3,7.3,7.3Z"/>
    </g>
    <rect class="st47" x="907" y="57.9" width="4.2" height="74.5"/>
  </g>
  <g>
    <g>
      <path class="st149" d="M1036.9,37.1c6.3,0,11.4,5.1,11.4,11.4s-5.1,11.4-11.4,11.4-11.5-5.1-11.5-11.4,5.1-11.4,11.5-11.4ZM1036.9,55.8c4,0,7.2-3.2,7.2-7.3s-3.3-7.2-7.2-7.2-7.3,3.3-7.3,7.2,3.3,7.3,7.3,7.3Z"/>
      <path class="st217" d="M1036.9,130.3c6.3,0,11.4,5.1,11.4,11.5s-5.1,11.4-11.4,11.4-11.5-5.1-11.5-11.4,5.1-11.5,11.5-11.5ZM1036.9,149c4,0,7.2-3.2,7.2-7.3s-3.3-7.3-7.2-7.3-7.3,3.3-7.3,7.3,3.3,7.3,7.3,7.3Z"/>
    </g>
    <rect class="st215" x="1034.8" y="57.9" width="4.1" height="74.5"/>
  </g>
  <g>
    <g>
      <path class="st132" d="M1036.9,779.7c6.3,0,11.4,5.1,11.4,11.4s-5.1,11.4-11.4,11.4-11.5-5.1-11.5-11.4,5.1-11.4,11.5-11.4ZM1036.9,798.4c4,0,7.2-3.2,7.2-7.3s-3.3-7.2-7.2-7.2-7.3,3.3-7.3,7.2,3.3,7.3,7.3,7.3Z"/>
      <path class="st89" d="M1036.9,872.9c6.3,0,11.4,5.1,11.4,11.4s-5.1,11.5-11.4,11.5-11.5-5.1-11.5-11.5,5.1-11.4,11.5-11.4ZM1036.9,891.6c4,0,7.2-3.2,7.2-7.3s-3.3-7.3-7.2-7.3-7.3,3.3-7.3,7.3,3.3,7.3,7.3,7.3Z"/>
    </g>
    <rect class="st118" x="1034.8" y="800.5" width="4.1" height="74.5"/>
  </g>
  <g>
    <g>
      <path class="st31" d="M598,511.8c6.3,0,11.4,5.1,11.4,11.4s-5.1,11.5-11.4,11.5-11.5-5.1-11.5-11.5,5.2-11.4,11.5-11.4ZM598,530.5c4.1,0,7.3-3.2,7.3-7.3s-3.3-7.2-7.3-7.2-7.3,3.3-7.3,7.2,3.3,7.3,7.3,7.3Z"/>
      <path class="st84" d="M598,605c6.3,0,11.4,5.1,11.4,11.5s-5.1,11.4-11.4,11.4-11.5-5.1-11.5-11.4,5.2-11.5,11.5-11.5ZM598,623.8c4.1,0,7.3-3.2,7.3-7.3s-3.3-7.3-7.3-7.3-7.3,3.3-7.3,7.3,3.3,7.3,7.3,7.3Z"/>
    </g>
    <rect class="st205" x="596" y="532.6" width="4.1" height="74.5"/>
  </g>
  <g>
    <g>
      <path class="st5" d="M870.2,726.8c6.3,0,11.4,5.1,11.4,11.4s-5.1,11.5-11.4,11.5-11.5-5.2-11.5-11.5,5.1-11.4,11.5-11.4ZM870.2,745.4c4.1,0,7.2-3.2,7.2-7.3s-3.3-7.2-7.2-7.2-7.3,3.3-7.3,7.2,3.2,7.3,7.3,7.3Z"/>
      <path class="st97" d="M870.2,819.9c6.3,0,11.4,5.1,11.4,11.5s-5.1,11.4-11.4,11.4-11.5-5.1-11.5-11.4,5.1-11.5,11.5-11.5ZM870.2,838.7c4.1,0,7.2-3.2,7.2-7.3s-3.3-7.3-7.2-7.3-7.3,3.3-7.3,7.3,3.2,7.3,7.3,7.3Z"/>
    </g>
    <rect class="st22" x="868.1" y="747.5" width="4.2" height="74.5"/>
  </g>
  <rect class="st83" x="637.3" y="730.5" width="74.6" height="4.2"/>
  <polygon class="st222" points="676.6 18.1 676.6 167.4 639.4 167.4 639.4 283.4 602.1 283.4 602.1 395 639.4 395 639.4 490.4 635.2 490.4 635.2 399.1 598 399.1 598 279.2 635.2 279.2 635.2 163.3 672.5 163.3 672.5 18.1 676.6 18.1"/>
  <rect class="st190" x="635.2" y="311" width="4.1" height="58.7"/>
  <g>
    <rect class="st128" x="566.3" y="18.1" width="4.2" height="175.6"/>
    <path class="st167" d="M579.9,204c0,6.3-5.1,11.5-11.5,11.5s-11.4-5.1-11.4-11.5,5.1-11.4,11.4-11.4,11.5,5.1,11.5,11.4ZM561.1,204c0,4.1,3.3,7.3,7.3,7.3s7.3-3.3,7.3-7.3-3.2-7.2-7.3-7.2-7.3,3.2-7.3,7.2Z"/>
    <path class="st142" d="M589.2,478.6c0,6.3-5.1,11.5-11.4,11.5s-11.5-5.1-11.5-11.5,5.2-11.4,11.5-11.4,11.4,5.1,11.4,11.4ZM570.5,478.6c0,4,3.3,7.3,7.3,7.3s7.2-3.3,7.2-7.3-3.3-7.3-7.2-7.3-7.3,3.2-7.3,7.3Z"/>
    <path class="st152" d="M542.6,294.6c0,6.3-5.1,11.4-11.4,11.4s-11.5-5.1-11.5-11.4,5.1-11.5,11.5-11.5,11.4,5.1,11.4,11.5ZM523.9,294.6c0,4.1,3.2,7.2,7.3,7.2s7.3-3.3,7.3-7.2-3.3-7.3-7.3-7.3-7.3,3.3-7.3,7.3Z"/>
    <path class="st99" d="M589.2,383.2c0,6.3-5.1,11.5-11.4,11.5s-11.5-5.1-11.5-11.5,5.2-11.4,11.5-11.4,11.4,5.1,11.4,11.4ZM570.5,383.2c0,4.1,3.3,7.3,7.3,7.3s7.2-3.3,7.2-7.3-3.3-7.2-7.2-7.2-7.3,3.2-7.3,7.2Z"/>
    <path class="st156" d="M589.2,420.3c0,6.3-5.1,11.5-11.4,11.5s-11.5-5.1-11.5-11.5,5.2-11.4,11.5-11.4,11.4,5.1,11.4,11.4ZM570.5,420.3c0,4,3.3,7.3,7.3,7.3s7.2-3.3,7.2-7.3-3.3-7.2-7.2-7.2-7.3,3.2-7.3,7.2Z"/>
    <path class="st44" d="M496,420.3c0,6.3-5.1,11.5-11.5,11.5s-11.5-5.1-11.5-11.5,5.1-11.5,11.5-11.5,11.5,5.1,11.5,11.5ZM477.3,420.3c0,4,3.3,7.3,7.3,7.3s7.3-3.3,7.3-7.3-3.3-7.3-7.3-7.3-7.3,3.3-7.3,7.3Z"/>
    <path class="st122" d="M347,173.5c0,6.3-5.1,11.4-11.5,11.4s-11.4-5.1-11.4-11.4,5.1-11.4,11.4-11.4,11.5,5.1,11.5,11.4ZM328.3,173.5c0,4,3.2,7.3,7.2,7.3s7.3-3.2,7.3-7.3-3.3-7.3-7.3-7.3-7.2,3.3-7.2,7.3Z"/>
    <path class="st157" d="M356.3,114.2c0,6.3-5.1,11.5-11.5,11.5s-11.5-5.1-11.5-11.5,5.1-11.4,11.5-11.4,11.5,5.1,11.5,11.4ZM337.6,114.2c0,4,3.3,7.3,7.3,7.3s7.3-3.2,7.3-7.3-3.3-7.3-7.3-7.3-7.3,3.3-7.3,7.3Z"/>
    <path class="st134" d="M356.3,222.8c0,6.3-5.1,11.4-11.5,11.4-6.3,0-11.5-5.2-11.5-11.4s5.1-11.4,11.5-11.4,11.5,5.1,11.5,11.4ZM337.6,222.8c0,4,3.3,7.2,7.3,7.3,4,0,7.3-3.3,7.3-7.3s-3.2-7.3-7.3-7.3-7.3,3.3-7.3,7.3Z"/>
    <path class="st13" d="M393.6,221.2c0,6.3-5.1,11.5-11.4,11.5s-11.4-5.1-11.4-11.5,5.1-11.4,11.4-11.4,11.4,5.1,11.4,11.4ZM374.9,221.2c0,4,3.2,7.3,7.2,7.3s7.3-3.3,7.3-7.3-3.2-7.3-7.3-7.3-7.2,3.3-7.2,7.3Z"/>
    <path class="st220" d="M393.6,392.6c0,6.3-5.1,11.4-11.4,11.4s-11.4-5.1-11.4-11.4,5.1-11.5,11.4-11.5,11.4,5.1,11.4,11.5ZM374.9,392.6c0,4,3.2,7.2,7.2,7.2s7.3-3.3,7.3-7.2-3.2-7.3-7.3-7.3-7.2,3.3-7.2,7.3Z"/>
    <path class="st35" d="M347,346.7c0,6.3-5.1,11.4-11.5,11.4s-11.4-5.1-11.4-11.4,5.1-11.5,11.4-11.5,11.5,5.1,11.5,11.5ZM328.3,346.7c0,4,3.2,7.3,7.2,7.3s7.3-3.3,7.3-7.3-3.3-7.3-7.3-7.3-7.2,3.3-7.2,7.3Z"/>
    <path class="st123" d="M440.2,346.7c0,6.3-5.1,11.4-11.4,11.4s-11.5-5.1-11.5-11.4,5.1-11.4,11.5-11.4,11.4,5.1,11.4,11.4ZM421.5,346.7c0,4,3.3,7.3,7.3,7.3s7.3-3.3,7.3-7.3-3.2-7.3-7.3-7.3-7.3,3.3-7.3,7.3Z"/>
    <path class="st198" d="M430.8,650.5c0,6.3-5.1,11.5-11.4,11.5s-11.4-5.1-11.4-11.5,5.1-11.5,11.4-11.5,11.4,5.2,11.4,11.5ZM412.2,650.5c0,4.1,3.3,7.3,7.3,7.3s7.2-3.2,7.2-7.3-3.2-7.3-7.2-7.3-7.3,3.3-7.3,7.3Z"/>
    <path class="st73" d="M430.8,315.6c0,6.3-5.1,11.4-11.5,11.4s-11.4-5.1-11.4-11.4,5.1-11.5,11.4-11.5,11.5,5.1,11.5,11.5ZM412.2,315.6c0,4,3.2,7.2,7.2,7.2s7.3-3.2,7.3-7.2-3.3-7.3-7.3-7.3-7.2,3.3-7.2,7.3Z"/>
    <path class="st223" d="M468.1,569.9c0,6.3-5.1,11.5-11.4,11.5s-11.5-5.2-11.5-11.5,5.1-11.5,11.5-11.5,11.4,5.2,11.4,11.5ZM449.4,569.9c0,4.1,3.3,7.3,7.3,7.3s7.2-3.2,7.2-7.3-3.2-7.3-7.2-7.3-7.3,3.2-7.3,7.3Z"/>
    <path class="st165" d="M468.1,631.6c0,6.3-5.1,11.5-11.4,11.5s-11.5-5.2-11.5-11.5,5.1-11.5,11.5-11.5,11.4,5.2,11.4,11.5ZM449.4,631.6c0,4.1,3.3,7.3,7.3,7.3s7.2-3.2,7.2-7.3-3.2-7.3-7.2-7.3-7.3,3.2-7.3,7.3Z"/>
    <path class="st82" d="M393.6,889.3c0,6.3-5.1,11.5-11.4,11.5s-11.4-5.2-11.4-11.5,5.1-11.5,11.4-11.5,11.4,5.2,11.4,11.5ZM374.9,889.3c0,4,3.2,7.3,7.2,7.3s7.3-3.2,7.3-7.3-3.3-7.3-7.3-7.3-7.2,3.2-7.2,7.3Z"/>
    <path class="st85" d="M356.3,579.2c0,6.3-5.1,11.5-11.5,11.5s-11.5-5.1-11.5-11.5,5.1-11.5,11.5-11.5,11.5,5.2,11.5,11.5ZM337.6,579.2c0,4.1,3.3,7.3,7.3,7.3s7.3-3.2,7.3-7.3-3.3-7.3-7.3-7.3-7.3,3.3-7.3,7.3Z"/>
    <path class="st195" d="M430.8,811.9c0,6.3-5.1,11.5-11.5,11.5s-11.4-5.1-11.4-11.5,5.1-11.4,11.4-11.4,11.5,5.1,11.5,11.4ZM412.2,811.9c0,4.1,3.2,7.3,7.2,7.3s7.3-3.3,7.3-7.3-3.3-7.3-7.3-7.3-7.2,3.3-7.2,7.3Z"/>
    <path class="st74" d="M430.8,956.7c0,6.3-5.1,11.5-11.5,11.5s-11.4-5.1-11.4-11.5,5.1-11.5,11.4-11.5,11.5,5.2,11.5,11.5ZM412.2,956.7c0,4,3.2,7.3,7.2,7.3s7.3-3.3,7.3-7.3-3.3-7.3-7.3-7.3-7.2,3.3-7.2,7.3Z"/>
    <path class="st68" d="M542.6,539.6c0,6.3-5.1,11.5-11.4,11.5s-11.5-5.1-11.5-11.5,5.1-11.5,11.5-11.5,11.4,5.1,11.4,11.5ZM523.9,539.6c0,4,3.3,7.3,7.3,7.3s7.3-3.3,7.3-7.3-3.3-7.3-7.3-7.3-7.3,3.3-7.3,7.3Z"/>
    <path class="st11" d="M496,683.1c0,6.3-5.1,11.5-11.5,11.5s-11.5-5.2-11.5-11.5,5.1-11.5,11.5-11.5,11.5,5.2,11.5,11.5ZM477.3,683.1c0,4.1,3.3,7.3,7.3,7.3s7.3-3.2,7.3-7.3-3.3-7.3-7.3-7.3-7.3,3.2-7.3,7.3Z"/>
    <path class="st189" d="M542.5,715.4c0,6.3-5.1,11.5-11.4,11.5s-11.5-5.2-11.5-11.5,5.1-11.5,11.5-11.5,11.4,5.1,11.4,11.5ZM523.9,715.4c0,4,3.3,7.3,7.3,7.3s7.2-3.3,7.2-7.3-3.2-7.3-7.2-7.3-7.3,3.2-7.3,7.3Z"/>
    <path class="st4" d="M505.3,859.5c0,6.3-5.1,11.5-11.4,11.5s-11.5-5.2-11.5-11.5,5.1-11.5,11.5-11.5,11.4,5.1,11.4,11.5ZM486.6,859.5c0,4,3.3,7.3,7.3,7.3s7.2-3.3,7.2-7.3-3.2-7.3-7.2-7.3-7.3,3.2-7.3,7.3Z"/>
    <path class="st0" d="M542.5,918.8c0,6.3-5.1,11.5-11.4,11.5s-11.5-5.2-11.5-11.5,5.1-11.5,11.5-11.5,11.4,5.2,11.4,11.5ZM523.9,918.8c0,4,3.3,7.3,7.3,7.3s7.2-3.2,7.2-7.3-3.2-7.3-7.2-7.3-7.3,3.2-7.3,7.3Z"/>
    <path class="st216" d="M468.1,1051.8c0,6.3-5.1,11.5-11.4,11.5s-11.5-5.2-11.5-11.5,5.1-11.5,11.5-11.5,11.4,5.2,11.4,11.5ZM449.4,1051.8c0,4.1,3.2,7.3,7.3,7.3s7.2-3.2,7.2-7.3-3.2-7.3-7.2-7.3-7.3,3.3-7.3,7.3Z"/>
    <path class="st210" d="M579.9,701.8c0,6.3-5.1,11.5-11.5,11.5s-11.4-5.1-11.4-11.5,5.1-11.5,11.4-11.5,11.5,5.2,11.5,11.5ZM561.1,701.8c0,4.1,3.3,7.3,7.3,7.3s7.3-3.2,7.3-7.3-3.2-7.3-7.3-7.3-7.3,3.3-7.3,7.3Z"/>
    <path class="st199" d="M579.9,1010.6c0,6.3-5.1,11.5-11.5,11.5s-11.4-5.1-11.4-11.5,5.1-11.5,11.4-11.5,11.5,5.2,11.5,11.5ZM561.1,1010.6c0,4.1,3.3,7.3,7.3,7.3s7.3-3.2,7.3-7.3-3.2-7.3-7.3-7.3-7.3,3.3-7.3,7.3Z"/>
    <path class="st194" d="M542.5,662.9c0,6.3-5.1,11.5-11.4,11.5s-11.5-5.2-11.5-11.5,5.1-11.5,11.5-11.5,11.4,5.2,11.4,11.5ZM523.9,662.9c0,4.1,3.3,7.3,7.3,7.3s7.2-3.2,7.2-7.3-3.2-7.3-7.2-7.3-7.3,3.2-7.3,7.3Z"/>
    <path class="st25" d="M505.3,535.5c0,6.3-5.1,11.5-11.4,11.5s-11.5-5.1-11.5-11.5,5.1-11.5,11.5-11.5,11.4,5.1,11.4,11.5ZM486.6,535.5c0,4,3.3,7.3,7.3,7.3s7.2-3.3,7.2-7.3-3.2-7.3-7.2-7.3-7.3,3.3-7.3,7.3Z"/>
    <path class="st51" d="M505.3,156.5c0,6.3-5.1,11.4-11.4,11.4s-11.5-5.1-11.5-11.4,5.1-11.5,11.5-11.5,11.4,5.1,11.4,11.5ZM486.6,156.5c0,4.1,3.2,7.2,7.3,7.2s7.2-3.3,7.2-7.2-3.3-7.3-7.2-7.3-7.3,3.3-7.3,7.3Z"/>
    <rect class="st9" x="529.1" y="18.1" width="4.2" height="268.6"/>
    <rect class="st8" x="491.9" y="18.1" width="4.2" height="129.1"/>
    <polygon class="st224" points="568.4 381.1 568.4 385.3 491.9 385.3 491.9 235.7 454.6 235.7 454.6 18.1 458.8 18.1 458.8 231.5 496 231.5 496 381.1 568.4 381.1"/>
    <polygon class="st182" points="568.4 476.5 568.4 480.7 533.3 480.7 533.3 518.3 491.9 518.3 491.9 450.4 454.6 450.4 454.6 297.9 417.3 297.9 417.3 18.1 421.5 18.1 421.5 293.7 458.8 293.7 458.8 446.3 496 446.3 496 514.1 529.1 514.1 529.1 476.5 568.4 476.5"/>
    <polygon class="st211" points="384.2 18.1 384.2 175.6 344.9 175.6 344.9 171.4 380.1 171.4 380.1 18.1 384.2 18.1"/>
    <rect class="st103" x="380.1" y="229.3" width="4.2" height="153.9"/>
    <polygon class="st188" points="458.8 485.9 458.8 560.5 454.6 560.5 454.6 490.1 417.3 490.1 417.3 324.1 421.5 324.1 421.5 485.9 458.8 485.9"/>
    <polygon class="st107" points="570.5 614.5 570.5 685.2 493.9 685.2 493.9 681 566.3 681 566.3 618.6 529.1 618.6 529.1 548.8 533.3 548.8 533.3 614.5 570.5 614.5"/>
    <polygon class="st61" points="533.3 632.4 533.3 653.5 529.1 653.5 529.1 636.5 491.9 636.5 491.9 544.9 496 544.9 496 632.4 533.3 632.4"/>
    <polygon class="st186" points="458.8 640.9 458.8 763.4 417.3 763.4 417.3 716.1 384.2 716.1 384.2 880 380.1 880 380.1 711.9 421.5 711.9 421.5 759.3 454.6 759.3 454.6 640.9 458.8 640.9"/>
    <polygon class="st180" points="458.8 865.3 458.8 906 421.5 906 421.5 947.4 417.4 947.4 417.4 901.8 454.6 901.8 454.6 869.5 417.3 869.5 417.3 821.3 421.5 821.3 421.5 865.3 458.8 865.3"/>
    <polygon class="st219" points="570.5 711.8 570.5 814 533.3 814 533.3 887.3 570.5 887.3 570.5 1001.2 566.3 1001.2 566.3 891.4 529.1 891.4 529.1 809.9 566.3 809.9 566.3 711.8 570.5 711.8"/>
    <polygon class="st1" points="533.3 724.8 533.3 790.3 496 790.3 496 850.9 491.9 850.9 491.9 786.2 529.1 786.2 529.1 724.8 533.3 724.8"/>
    <polygon class="st70" points="533.3 928.2 533.3 990.3 491.9 990.3 491.9 960.3 458.8 960.3 458.8 1040 454.6 1040 454.6 956.1 496 956.1 496 986.1 529.1 986.1 529.1 928.2 533.3 928.2"/>
    <rect class="st192" x="342.8" y="18.1" width="4.2" height="86.8"/>
    <polygon class="st52" points="421.5 561 421.5 640.9 417.4 640.9 417.4 565.2 380.1 565.2 380.1 479.1 342.8 479.1 342.8 402.7 305.6 402.7 305.6 321.1 342.8 321.1 342.8 231.9 347 231.9 347 325.3 309.7 325.3 309.7 398.5 347 398.5 347 475 384.2 475 384.2 561 421.5 561"/>
    <rect class="st169" x="493.9" y="418.3" width="74.5" height="4.2"/>
    <rect class="st16" x="344.9" y="344.6" width="74.6" height="4.2"/>
    <polygon class="st63" points="384.2 912.6 384.2 1062.2 380.1 1062.2 380.1 916.7 342.8 916.7 342.8 800.5 305.6 800.5 305.6 680.3 342.8 680.3 342.8 588.9 347 588.9 347 684.5 309.7 684.5 309.7 796.3 347 796.3 347 912.6 384.2 912.6"/>
    <rect class="st174" x="342.8" y="709.6" width="4.2" height="58.7"/>
  </g>
  <path class="st65" d="M281.8,779.8c0,6.3-5.1,11.4-11.4,11.4s-11.4-5.1-11.4-11.4,5.1-11.5,11.4-11.5,11.4,5.1,11.4,11.5ZM263.2,779.8c0,4.1,3.2,7.2,7.3,7.2s7.2-3.3,7.2-7.2-3.2-7.3-7.2-7.3-7.3,3.3-7.3,7.3Z"/>
  <path class="st38" d="M356.3,779.8c0,6.3-5.1,11.4-11.4,11.4s-11.5-5.1-11.5-11.4,5.1-11.5,11.5-11.5,11.4,5.1,11.4,11.5ZM337.6,779.8c0,4.1,3.2,7.2,7.3,7.2s7.2-3.3,7.2-7.2-3.2-7.3-7.2-7.3-7.3,3.3-7.3,7.3Z"/>
  <path class="st86" d="M356.3,698.3c0,6.3-5.1,11.4-11.4,11.4s-11.5-5.1-11.5-11.4,5.1-11.5,11.5-11.5,11.4,5.1,11.4,11.5ZM337.6,698.3c0,4.1,3.2,7.2,7.3,7.2s7.2-3.3,7.2-7.2-3.2-7.3-7.2-7.3-7.3,3.3-7.3,7.3Z"/>
  <path class="st32" d="M648.6,379c0,6.3-5,11.4-11.3,11.4s-11.5-5.1-11.5-11.4,5.1-11.4,11.5-11.4,11.3,5.1,11.3,11.4ZM629.9,379c0,4.1,3.3,7.3,7.3,7.3s7.2-3.3,7.2-7.3-3.2-7.3-7.2-7.3-7.3,3.3-7.3,7.3Z"/>
  <path class="st98" d="M648.6,299.6c0,6.3-5,11.4-11.3,11.4s-11.5-5.1-11.5-11.4,5.1-11.5,11.5-11.5,11.3,5.1,11.3,11.5ZM629.9,299.6c0,4.1,3.3,7.2,7.3,7.2s7.2-3.3,7.2-7.2-3.2-7.3-7.2-7.3-7.3,3.3-7.3,7.3Z"/>
  <path class="st203" d="M941.5,299.6c0,6.3-5.1,11.4-11.3,11.4s-11.5-5.1-11.5-11.4,5.2-11.5,11.5-11.5,11.3,5.1,11.3,11.5ZM922.9,299.6c0,4.1,3.2,7.2,7.3,7.2s7.2-3.3,7.2-7.2-3.2-7.3-7.2-7.3-7.3,3.3-7.3,7.3Z"/>
  <path class="st130" d="M941.5,378.9c0,6.3-5.1,11.4-11.3,11.4s-11.5-5.1-11.5-11.4,5.2-11.4,11.5-11.4,11.3,5.1,11.3,11.4ZM922.9,378.9c0,4.1,3.2,7.3,7.3,7.3s7.2-3.3,7.2-7.3-3.2-7.3-7.2-7.3-7.3,3.3-7.3,7.3Z"/>
  <path class="st173" d="M281.8,698.3c0,6.3-5.1,11.4-11.4,11.4s-11.4-5.1-11.4-11.4,5.1-11.5,11.4-11.5,11.4,5.1,11.4,11.5ZM263.2,698.3c0,4.1,3.2,7.2,7.3,7.2s7.2-3.3,7.2-7.2-3.2-7.3-7.2-7.3-7.3,3.3-7.3,7.3Z"/>
</svg>